<?xml version="1.0" standalone="no"?>
<!DOCTYPE svg PUBLIC "-//W3C//DTD SVG 20010904//EN"
 "http://www.w3.org/TR/2001/REC-SVG-20010904/DTD/svg10.dtd">
<svg version="1.0" xmlns="http://www.w3.org/2000/svg"
 width="480.000000pt" height="720.000000pt" viewBox="0 0 480.000000 720.000000"
 preserveAspectRatio="xMidYMid meet">

<g transform="translate(0.000000,720.000000) scale(0.100000,-0.100000)"
fill="#000000" stroke="none">
<path d="M0 5713 l0 -1490 40 -18 c22 -10 40 -21 40 -26 0 -4 17 -18 37 -30
59 -35 85 -67 74 -88 -8 -14 -4 -21 19 -34 16 -10 30 -26 32 -36 3 -18 5 -18
62 0 78 25 167 69 173 86 3 7 13 13 23 13 11 0 21 4 25 9 9 16 135 96 205 130
35 18 75 41 88 52 14 10 34 19 46 19 12 0 26 8 32 18 7 9 27 25 45 34 85 43
191 89 195 86 2 -2 7 -22 12 -43 4 -21 14 -41 21 -43 11 -4 12 1 7 19 -19 67
-17 83 17 104 74 45 93 54 110 49 12 -4 17 0 17 13 0 11 19 29 52 48 70 40 76
42 55 17 -10 -11 -17 -28 -15 -38 2 -13 -8 -24 -30 -35 -47 -24 -74 -59 -68
-86 7 -25 -12 -42 -25 -22 -6 10 -9 5 -10 -16 -2 -72 3 -122 17 -142 8 -13 12
-35 9 -50 l-5 -28 10 25 c10 23 10 69 -1 95 -2 6 1 12 6 15 6 3 11 -5 13 -17
2 -13 8 -23 13 -23 6 0 9 -10 8 -22 -2 -13 1 -29 6 -37 5 -10 4 -16 -3 -19 -7
-2 -12 -26 -12 -63 0 -52 2 -59 20 -59 11 0 20 -5 20 -11 0 -6 9 -8 21 -4 36
12 119 -14 131 -41 6 -13 17 -24 25 -24 7 0 13 -7 13 -15 0 -20 36 -19 44 1 3
9 4 20 0 25 -3 5 2 9 10 9 9 0 16 9 16 20 0 16 5 19 30 14 38 -8 38 0 0 35
l-31 28 33 0 c18 0 39 -4 46 -10 9 -7 16 -7 24 1 6 6 16 9 22 7 6 -2 24 -6 40
-10 23 -5 27 -8 15 -16 -10 -6 -6 -9 17 -9 38 0 98 49 88 74 -5 12 1 18 25 22
39 8 39 14 1 39 -35 23 -40 55 -10 55 22 0 26 20 8 38 -9 9 -5 12 19 12 17 0
33 4 35 10 4 12 240 45 262 37 26 -10 18 -44 -14 -64 -39 -22 -38 -40 1 -35 4
1 23 2 43 4 41 2 41 3 21 42 -10 19 -12 33 -6 40 7 8 1 18 -20 31 -16 11 -29
25 -29 32 0 7 -13 22 -30 35 -28 20 -30 26 -27 77 l2 56 50 6 c56 6 119 30
131 51 12 18 49 33 118 48 56 12 58 13 54 41 -4 23 -1 29 11 27 16 -3 38 12
93 65 16 15 33 27 39 27 5 0 14 10 19 23 6 12 16 30 22 40 11 15 10 20 -3 30
-8 7 -18 20 -22 30 -3 9 -15 17 -26 17 -10 0 -22 7 -25 16 -5 14 -16 15 -71 9
-57 -6 -65 -4 -65 10 0 9 18 34 40 56 29 29 40 48 40 69 0 17 -4 30 -10 30 -5
0 -10 -7 -10 -15 0 -8 -10 -19 -21 -26 -28 -14 -68 -60 -69 -76 0 -15 4 -14
-90 -19 -55 -3 -85 1 -113 13 -30 13 -43 14 -57 6 -10 -7 -28 -9 -40 -6 -15 4
-26 1 -32 -11 -12 -22 -44 -20 -71 4 -12 12 -33 24 -47 27 -14 3 -41 19 -60
35 -19 15 -43 28 -52 28 -10 0 -26 8 -36 18 -9 9 -36 26 -60 36 -23 10 -42 25
-42 33 0 12 6 11 33 -3 83 -43 91 -44 75 -9 -8 18 -19 25 -40 25 -22 0 -33 8
-46 30 -21 36 -35 39 -26 5 3 -14 2 -25 -3 -25 -18 0 -33 25 -33 56 0 18 -4
35 -9 39 -5 3 -7 22 -4 43 8 50 7 64 -2 87 -7 18 -5 17 18 -4 17 -16 26 -33
25 -50 -5 -76 12 -102 42 -66 16 20 80 20 80 1 0 -8 -4 -17 -9 -20 -10 -6 -21
-56 -13 -56 3 0 14 7 24 17 10 9 18 12 19 7 2 -28 9 -45 23 -60 9 -8 16 -21
16 -29 0 -7 6 -15 14 -18 10 -4 17 3 21 23 8 36 35 60 66 59 13 -1 57 4 98 9
40 6 88 8 107 5 22 -4 38 0 48 10 22 22 20 35 -6 39 -15 2 -23 10 -23 22 0 14
-12 22 -50 32 -82 22 -111 18 -135 -16 -12 -17 -26 -28 -31 -24 -6 4 -5 11 2
20 6 8 9 17 5 21 -3 3 -6 0 -6 -8 -1 -10 -4 -9 -15 5 -7 10 -18 16 -22 13 -5
-3 -15 -2 -22 3 -27 16 34 34 144 41 103 6 116 5 207 -22 129 -38 158 -37 142
6 -5 12 -14 14 -36 9 -17 -3 -40 -2 -52 4 -11 6 -54 25 -94 43 -72 32 -73 32
-108 16 -43 -21 -61 -21 -98 -2 -37 20 -43 19 -100 -10 -53 -27 -69 -26 -44 2
14 16 14 20 1 32 -11 10 -18 10 -26 2 -15 -15 -37 -14 -37 2 0 24 25 67 38 67
8 0 22 10 32 22 l17 22 8 -22 c4 -14 2 -29 -5 -37 -10 -12 -9 -15 6 -15 18 -1
18 -1 0 -15 -11 -8 -14 -15 -8 -15 23 0 69 64 83 113 15 55 46 80 73 58 14
-12 33 -118 28 -148 -3 -15 14 -17 22 -4 4 5 2 42 -4 81 -11 81 -4 100 36 100
17 0 27 -8 34 -25 7 -20 15 -23 39 -20 41 5 48 10 71 55 24 47 25 57 4 36 -25
-25 -42 -19 -93 32 l-47 49 -34 -18 c-29 -16 -37 -17 -55 -5 -11 7 -32 16 -46
19 -37 9 -72 79 -57 113 6 13 15 24 19 24 5 0 6 7 3 15 -3 8 0 17 8 20 11 5
13 24 10 94 -4 80 -2 91 20 127 40 63 43 81 13 86 -14 3 -28 1 -31 -3 -11 -18
-24 -8 -24 19 0 30 -39 88 -41 62 -1 -8 -1 -18 0 -22 0 -5 -6 -8 -14 -8 -7 0
-18 -7 -23 -17 -12 -21 -42 -10 -42 17 0 11 6 20 14 20 7 0 16 10 20 23 8 32
7 39 -4 32 -6 -4 -8 -10 -5 -15 6 -10 -40 -41 -49 -33 -11 12 -6 33 8 33 19 0
27 13 31 50 5 40 -1 38 -20 -6 -16 -39 -35 -38 -35 3 0 20 -3 23 -13 14 -10
-8 -17 -7 -25 1 -15 15 -15 3 -2 -23 7 -12 7 -19 1 -19 -6 0 -17 15 -26 34
-17 35 -52 73 -59 65 -3 -3 8 -24 25 -48 16 -24 29 -53 29 -65 -1 -18 -4 -17
-31 14 -27 32 -30 33 -23 10 3 -14 11 -30 16 -37 17 -22 -2 -36 -23 -17 -18
16 -19 16 -19 -3 0 -24 -46 -41 -64 -23 -6 6 -11 43 -11 83 0 40 -4 81 -9 92
-9 19 -9 20 11 2 12 -10 24 -33 27 -52 4 -18 15 -44 26 -57 l19 -23 1 22 c0
12 -4 25 -10 28 -15 9 -12 25 5 25 23 0 19 8 -39 71 -48 52 -73 99 -64 125 2
5 -1 10 -6 12 -5 2 -15 -15 -23 -37 -10 -31 -11 -47 -3 -63 10 -21 10 -21 -3
-5 -14 16 -15 16 -21 -5 -8 -33 -7 -40 4 -33 5 3 10 -1 10 -9 0 -26 -20 -28
-40 -4 -20 23 -21 37 -4 116 8 39 -5 42 -37 7 -13 -13 -32 -25 -41 -25 -14 0
-30 24 -33 50 -2 20 -33 79 -52 100 -13 14 -23 31 -23 38 0 7 -8 21 -17 30
-15 16 -16 15 -10 -14 5 -28 4 -31 -13 -27 -11 3 -20 12 -20 20 0 12 -8 14
-37 10 -21 -4 -33 -3 -26 1 14 9 17 142 3 142 -4 0 -10 7 -14 15 -4 10 5 19
27 29 18 8 41 21 52 29 16 13 17 17 6 31 -11 14 -11 16 3 16 30 0 16 19 -16
23 l-33 4 33 1 c17 1 32 7 32 13 0 7 -88 10 -293 7 l-293 -3 -33 -27 c-18 -16
-29 -28 -25 -28 4 0 -1 -7 -12 -15 -24 -18 -51 -19 -57 -2 -3 6 -6 2 -6 -11
-1 -13 -5 -21 -10 -17 -11 6 -10 45 1 45 4 0 8 5 8 10 0 6 -17 10 -37 10 -44
0 -85 19 -43 20 24 1 24 1 5 12 -14 8 -108 13 -292 16 l-273 4 0 -1489z m1273
1450 c-7 -2 -21 -2 -30 0 -10 3 -4 5 12 5 17 0 24 -2 18 -5z m-713 -23 c0 -5
10 -11 23 -11 16 -1 17 -3 5 -6 -9 -2 -15 -10 -12 -18 3 -7 1 -16 -5 -20 -7
-3 -11 2 -11 14 0 11 -9 22 -21 26 -17 6 -19 9 -8 16 19 12 29 11 29 -1z m836
-337 c-10 -10 -19 5 -10 18 6 11 8 11 12 0 2 -7 1 -15 -2 -18z m117 -238 c5
-16 10 -41 12 -55 3 -14 9 -50 15 -80 7 -40 7 -61 -2 -77 -14 -29 -4 -40 17
-19 19 19 17 19 51 6 20 -8 24 -14 16 -22 -8 -8 -16 -7 -28 3 -16 13 -17 12
-10 -13 8 -33 -11 -68 -37 -68 -13 0 -17 -5 -13 -16 3 -8 -3 -25 -14 -36 -19
-21 -24 -40 -21 -83 1 -12 -8 -32 -19 -45 -12 -14 -19 -32 -17 -42 3 -9 -1
-25 -9 -36 -21 -31 -11 -241 15 -317 58 -165 55 -160 86 -160 23 0 30 -5 31
-20 8 -98 26 -229 39 -272 9 -29 34 -75 58 -104 42 -52 75 -99 76 -110 1 -7
-59 0 -84 11 -11 4 -28 11 -38 14 -9 3 -20 14 -24 23 -4 10 -26 41 -49 68 -38
45 -84 130 -84 156 0 5 19 -12 41 -36 44 -48 59 -56 54 -27 -33 166 -74 292
-95 292 -6 0 -7 -35 -4 -90 5 -83 -2 -110 -21 -80 -10 16 -25 1 -25 -23 1 -32
47 -158 70 -189 11 -15 20 -42 20 -60 0 -19 11 -49 25 -70 25 -36 20 -56 -10
-44 -18 7 -29 -28 -16 -52 9 -16 11 -65 12 -204 0 -26 7 -73 15 -103 8 -31 11
-67 8 -80 -3 -13 -1 -40 6 -60 7 -20 9 -39 6 -42 -9 -10 -34 28 -41 62 -27
131 -38 175 -46 175 -5 0 -9 -7 -9 -16 0 -8 -4 -12 -10 -9 -14 9 -12 21 6 40
18 17 39 169 27 189 -4 6 -10 28 -14 51 -4 22 -15 74 -24 115 -10 41 -19 98
-21 125 -10 132 -26 198 -53 217 -17 12 -18 20 -10 66 6 32 7 115 1 215 -9
165 -8 228 3 304 5 36 3 42 -15 48 -29 9 -25 35 13 75 30 32 32 40 36 115 2
55 8 86 19 98 13 15 14 23 4 50 -10 30 -4 135 12 177 3 8 10 34 16 58 13 51
38 54 53 7z m65 -17 c15 -15 16 -38 2 -38 -5 0 -10 9 -10 19 0 11 -6 22 -12
24 -7 3 -8 6 -2 6 5 1 15 -4 22 -11z m91 -91 c1 -4 -8 -3 -19 3 -10 6 -17 17
-14 24 3 8 1 17 -5 20 -6 4 -7 14 -4 23 5 13 11 8 24 -23 10 -21 18 -43 18
-47z m-81 21 c14 -14 16 -48 2 -48 -10 0 -30 32 -30 49 0 14 13 14 28 -1z m80
-50 c7 -7 12 -18 12 -25 0 -20 -35 -16 -54 6 -18 20 -18 21 25 30 3 0 10 -4
17 -11z m-1078 -74 c0 -22 -3 -24 -22 -18 -32 9 -33 12 -13 34 21 24 35 18 35
-16z m-10 -43 c0 -6 -4 -13 -10 -16 -5 -3 -10 -2 -10 4 0 5 -8 12 -17 14 -11
3 -7 5 10 6 15 0 27 -3 27 -8z m-48 -23 c16 -7 28 -16 28 -20 0 -12 -28 -10
-35 2 -10 16 -45 12 -45 -5 0 -8 -4 -15 -10 -15 -5 0 -10 7 -10 15 0 8 5 15
10 15 6 0 10 7 10 16 0 16 4 16 52 -8z m1311 -35 c4 -7 17 -13 28 -13 17 0 18
3 7 20 -15 24 -6 35 19 22 10 -5 35 -17 56 -26 46 -19 49 -37 5 -30 l-33 5 24
-20 c13 -12 29 -21 36 -21 7 0 18 -7 26 -16 11 -13 9 -14 -17 -8 -16 4 -51 15
-77 25 -54 21 -147 26 -147 7 0 -6 -3 -9 -6 -6 -10 11 16 47 37 50 l20 3 -20
22 c-12 12 -21 25 -21 28 0 8 54 -28 63 -42z m-68 7 c3 -5 2 -10 -4 -10 -5 0
-13 5 -16 10 -3 6 -2 10 4 10 5 0 13 -4 16 -10z m99 -69 c9 -13 89 -51 109
-51 40 0 11 -61 -36 -76 -44 -14 -68 -35 -56 -50 26 -31 -19 -72 -47 -44 -8 8
-15 6 -25 -6 -12 -16 -12 -17 4 -11 15 6 17 3 11 -15 -6 -21 -42 -57 -56 -58
-5 0 -8 -7 -8 -15 0 -8 -5 -15 -10 -15 -12 0 -1 53 12 58 4 2 5 15 2 28 -3 13
-1 30 5 38 8 9 8 22 2 39 -7 19 -15 23 -34 20 -14 -3 -28 0 -31 6 -4 6 -16 11
-27 11 -10 0 -19 4 -19 9 0 15 41 24 53 12 16 -16 72 -13 115 6 l37 17 -40 5
c-36 5 -40 9 -42 38 -2 17 2 35 7 38 6 4 10 -5 10 -20 0 -20 4 -26 18 -23 13
3 16 12 14 36 -2 23 1 32 12 32 8 0 17 -4 20 -9z m-124 -5 c0 -11 -33 -36 -47
-36 -23 0 -10 24 18 31 13 4 25 7 27 8 1 1 2 -1 2 -3z m-166 -131 c14 -14 34
-25 46 -25 12 0 20 -7 20 -16 0 -12 -7 -14 -32 -9 -38 8 -64 28 -71 56 -7 26
7 24 37 -6z m396 -22 c0 -5 -4 -15 -10 -23 -11 -18 -25 -7 -17 15 6 15 27 21
27 8z m-677 -43 c17 -16 28 -33 23 -37 -4 -4 -15 2 -24 13 -9 12 -25 24 -35
27 -10 4 -15 11 -12 17 9 15 13 13 48 -20z m642 -26 c0 -12 -8 -20 -22 -22
-26 -4 -28 1 -12 29 13 24 34 20 34 -7z m-355 6 c0 -5 -2 -10 -4 -10 -3 0 -8
5 -11 10 -3 6 -1 10 4 10 6 0 11 -4 11 -10z m150 -31 c0 -5 -7 -9 -15 -9 -8 0
-15 -7 -15 -15 0 -17 -16 -20 -25 -5 -4 6 4 19 17 29 23 19 38 19 38 0z m-200
1 c0 -5 -4 -10 -9 -10 -5 0 -7 -9 -4 -20 3 -11 0 -20 -6 -20 -12 0 -14 20 -5
44 7 18 24 22 24 6z m60 -9 c0 -19 -23 -35 -34 -24 -7 8 12 43 24 43 6 0 10
-9 10 -19z m50 4 c0 -8 -7 -15 -15 -15 -16 0 -20 12 -8 23 11 12 23 8 23 -8z
m330 -13 c0 -5 -9 -17 -21 -28 -12 -10 -18 -26 -15 -37 2 -10 -2 -30 -10 -45
-8 -15 -14 -32 -14 -39 0 -19 -21 -27 -31 -12 -6 11 -9 10 -15 -5 -4 -11 -2
-21 7 -27 12 -7 11 -13 -4 -39 -11 -18 -16 -38 -12 -51 4 -11 2 -26 -4 -33
-13 -16 2 -66 19 -66 14 0 9 -50 -5 -52 -11 -1 -41 50 -59 101 -10 31 -10 41
2 59 15 23 9 42 -14 42 -9 0 -12 -5 -8 -11 4 -7 1 -10 -6 -7 -20 6 -24 28 -6
28 21 0 20 8 -9 66 -31 61 -31 77 -1 42 22 -25 25 -26 39 -10 13 15 13 19 1
30 -18 16 -18 42 -1 42 8 0 20 12 28 26 11 22 19 25 49 21 19 -2 44 -1 55 4
27 10 35 11 35 1z m-352 -31 c3 -8 -1 -12 -9 -9 -7 2 -15 10 -17 17 -3 8 1 12
9 9 7 -2 15 -10 17 -17z m-428 -12 c0 -11 -4 -17 -10 -14 -5 3 -10 13 -10 21
0 8 5 14 10 14 6 0 10 -9 10 -21z m820 2 c0 -12 -20 -25 -27 -18 -7 7 6 27 18
27 5 0 9 -4 9 -9z m-417 -44 c-3 -5 -10 -4 -15 1 -6 6 -7 16 -3 22 6 9 9 9 16
-1 4 -7 5 -17 2 -22z m102 3 c-3 -5 -11 -10 -16 -10 -6 0 -7 5 -4 10 3 6 11
10 16 10 6 0 7 -4 4 -10z m-45 -57 c0 -13 -3 -13 -15 -3 -8 7 -12 16 -9 21 8
13 24 1 24 -18z m84 -14 c18 -25 25 -44 19 -50 -6 -6 -19 6 -36 32 -45 69 -31
85 17 18z m-546 4 c6 -19 -25 -16 -32 3 -4 11 -1 14 11 12 9 -2 18 -9 21 -15z
m479 -45 c-21 -14 -28 -9 -15 12 9 13 14 16 20 7 4 -6 2 -15 -5 -19z m-383
-110 c5 -56 3 -88 -3 -88 -5 0 -12 4 -15 8 -8 14 -17 162 -10 173 13 21 22 -8
28 -93z m476 12 c0 -5 -4 -10 -10 -10 -5 0 -10 5 -10 10 0 6 5 10 10 10 6 0
10 -4 10 -10z m29 -98 c1 -19 7 -35 16 -38 8 -4 15 -10 15 -15 0 -13 -32 -10
-50 4 -19 15 -24 98 -7 109 15 9 25 -15 26 -60z m-59 12 c0 -8 -4 -12 -10 -9
-5 3 -10 10 -10 16 0 5 5 9 10 9 6 0 10 -7 10 -16z m-96 -41 c3 -16 8 -75 10
-133 4 -96 4 -99 -5 -40 -17 121 -25 200 -18 200 4 0 9 -12 13 -27z m-300 -5
c19 -27 20 -38 3 -38 -7 0 -21 14 -30 30 -15 25 -16 30 -3 30 8 0 22 -10 30
-22z m-6 -112 c3 -12 -1 -17 -10 -14 -7 3 -15 13 -16 22 -3 12 1 17 10 14 7
-3 15 -13 16 -22z m587 -266 c3 -5 -1 -10 -10 -10 -9 0 -13 5 -10 10 3 6 8 10
10 10 2 0 7 -4 10 -10z m55 -42 c0 -5 -9 -4 -20 2 -11 6 -18 15 -14 21 6 11
34 -7 34 -23z m-74 -55 c21 -8 25 -33 5 -33 -21 0 -111 38 -111 47 0 5 83 -5
106 -14z m88 -652 c14 -5 16 -10 7 -15 -16 -10 -81 2 -81 14 0 12 46 12 74 1z
m-572 -186 c14 -16 32 -25 50 -25 28 0 28 0 12 -25 -20 -30 -34 -32 -41 -5 -3
13 -14 20 -28 20 -17 0 -26 8 -34 30 -13 39 9 41 41 5z m-17 -95 c-3 -6 -10
-10 -14 -10 -10 0 -21 47 -13 55 8 8 34 -34 27 -45z"/>
<path d="M1820 6020 c0 -5 7 -10 15 -10 8 0 15 5 15 10 0 6 -7 10 -15 10 -8 0
-15 -4 -15 -10z"/>
<path d="M1841 5881 c-11 -20 -5 -51 9 -51 5 0 6 -9 3 -20 -9 -33 5 -23 27 20
22 43 26 65 10 55 -6 -4 -17 -2 -25 5 -11 9 -16 7 -24 -9z"/>
<path d="M1810 5755 c0 -8 7 -15 15 -15 8 0 15 7 15 15 0 8 -7 15 -15 15 -8 0
-15 -7 -15 -15z"/>
<path d="M4320 7191 c-28 -5 -31 -8 -17 -14 10 -4 27 -7 37 -7 10 0 20 -7 24
-15 3 -8 13 -15 23 -15 17 0 123 -49 133 -61 3 -3 19 -9 35 -12 17 -3 48 -10
71 -16 23 -6 55 -12 73 -13 17 -1 31 -5 31 -9 0 -4 16 -9 35 -11 l35 -4 0 93
0 93 -222 -1 c-123 -1 -239 -4 -258 -8z"/>
<path d="M2806 6801 c-4 -6 -2 -11 3 -11 6 0 11 -8 11 -17 1 -10 13 -34 28
-54 15 -20 42 -55 60 -79 17 -24 32 -48 32 -55 0 -6 9 -30 20 -53 11 -22 20
-47 20 -55 0 -7 4 -17 9 -22 24 -25 42 -108 47 -220 9 -204 14 -215 93 -188
40 13 45 13 60 -2 15 -16 14 -17 -5 -11 -38 12 -66 -44 -80 -157 -4 -36 -12
-61 -22 -66 -14 -8 -14 -14 -2 -50 10 -32 11 -47 2 -66 -15 -32 -15 -69 -2
-95 6 -11 15 -29 20 -40 6 -11 10 -29 10 -39 0 -11 4 -22 9 -25 5 -4 6 9 1 29
-4 19 -5 37 -2 40 3 3 8 52 9 108 2 56 5 123 7 150 2 26 4 62 5 80 1 17 10 43
20 56 l18 24 17 -54 c8 -30 17 -72 18 -94 2 -32 7 -39 21 -37 10 2 17 -3 17
-12 0 -20 -17 -29 -23 -14 -4 10 -8 9 -16 -2 -12 -17 -5 -26 24 -32 17 -3 16
-6 -12 -23 -37 -22 -56 -63 -41 -89 11 -19 3 -50 -11 -42 -5 3 -11 -1 -15 -9
-3 -8 2 -19 12 -24 14 -8 15 -13 5 -30 -7 -12 -13 -30 -13 -41 0 -11 -5 -30
-12 -43 -6 -12 -14 -29 -18 -37 -4 -8 -15 -17 -24 -18 -14 -3 -17 2 -14 27 1
17 -2 32 -7 33 -6 2 -11 -13 -13 -32 -2 -19 -12 -44 -21 -55 -10 -11 -23 -29
-29 -40 -15 -29 -32 -220 -32 -355 0 -64 -5 -131 -11 -149 -13 -38 -1 -75 40
-120 14 -16 40 -45 58 -64 17 -19 60 -48 95 -65 35 -17 78 -44 97 -61 19 -17
50 -36 70 -42 75 -24 238 -119 248 -145 3 -9 21 -14 49 -14 24 0 44 -4 44 -10
0 -5 6 -10 14 -10 21 0 95 -41 127 -71 27 -25 111 -61 177 -74 17 -4 32 -10
32 -15 0 -4 6 -10 14 -13 9 -4 12 0 9 13 -3 10 -17 22 -31 26 l-27 7 30 6 c26
5 30 11 33 44 2 25 -1 37 -10 37 -8 1 -4 8 10 19 17 15 22 30 22 66 0 47 0 47
30 42 22 -5 30 -3 30 8 0 8 6 15 13 15 8 0 7 4 -3 10 -11 7 -12 10 -2 10 22 0
9 86 -17 113 -11 13 -21 30 -21 39 0 19 32 48 53 48 9 0 20 6 24 13 4 6 26 22
48 34 47 26 77 63 51 63 -9 0 -16 4 -16 8 0 14 33 40 55 44 11 2 21 12 23 23
4 22 30 55 43 55 4 0 9 -7 11 -16 3 -14 6 -14 27 3 21 17 24 28 22 73 -1 39 1
51 11 48 7 -3 14 -17 16 -31 2 -19 9 -27 23 -27 10 0 19 3 19 8 0 16 -70 82
-94 88 -17 4 -26 13 -26 26 0 17 -6 19 -47 18 -73 -3 -73 -3 -73 34 0 26 5 36
20 41 11 3 20 11 20 16 0 5 36 9 80 9 72 0 80 2 80 19 0 11 6 21 12 23 9 3 8
9 -4 22 -23 23 -94 19 -90 -5 2 -13 -10 -17 -56 -22 -32 -4 -68 -4 -80 0 -16
4 -22 1 -22 -11 0 -9 4 -16 8 -16 5 0 17 -7 28 -15 18 -13 17 -14 -17 -15 -37
0 -37 0 -41 46 -3 40 10 73 23 59 3 -2 22 2 43 9 22 8 34 16 27 20 -14 9 -15
46 -1 46 6 0 10 8 10 18 -1 16 -2 16 -15 -2 -13 -17 -16 -17 -46 -2 -36 18
-179 23 -179 6 0 -13 -27 -13 -34 -1 -8 12 10 58 29 77 10 10 49 17 130 21
118 6 145 16 75 28 -30 5 -40 11 -40 26 0 11 -7 19 -17 19 -10 0 -28 3 -40 6
-17 5 -23 2 -23 -10 0 -9 4 -16 8 -16 5 0 17 -7 28 -15 17 -13 13 -14 -48 -15
l-68 0 0 49 c0 39 4 51 18 55 9 2 -31 3 -89 2 -91 -2 -110 0 -130 15 -13 10
-34 19 -45 19 -12 0 -34 6 -50 14 -15 8 -39 13 -53 10 -28 -5 -60 10 -48 22
12 12 68 8 76 -5 8 -12 81 -28 81 -17 0 3 -9 15 -20 26 -26 26 -128 40 -140
19 -7 -10 -11 -7 -19 14 -6 15 -13 39 -15 52 -3 14 -7 29 -11 35 -3 5 1 10 10
10 9 0 13 5 10 10 -9 14 -42 12 -48 -2 -3 -7 -6 -3 -6 10 -1 32 33 66 58 59
12 -3 21 -1 21 4 0 5 16 2 36 -6 46 -19 44 -20 44 14 0 27 3 29 52 33 37 4 56
1 66 -9 11 -11 28 -13 66 -8 28 4 53 11 56 15 3 5 22 11 43 15 20 4 37 11 37
16 0 12 43 11 111 -3 47 -9 63 -9 82 1 49 26 203 -7 229 -49 16 -25 20 -25 84
5 l52 25 -5 62 c-6 70 -28 105 -71 110 -36 4 -49 30 -35 68 l11 30 -43 0 c-25
0 -50 6 -59 15 -19 19 -36 19 -50 0 -8 -11 -23 -13 -63 -9 -48 6 -53 9 -63 40
-7 19 -16 32 -21 28 -14 -8 -79 65 -79 89 0 16 -3 18 -11 10 -13 -13 -39 -6
-39 10 0 6 -9 20 -20 32 l-20 21 41 3 c22 1 48 6 57 11 10 5 29 11 45 15 15 3
27 10 27 15 0 5 17 27 37 49 28 31 40 38 50 29 7 -6 13 -17 13 -24 0 -8 5 -14
10 -14 6 0 10 9 10 20 0 11 7 20 15 20 9 0 15 -9 15 -21 l0 -20 26 20 c15 12
32 21 39 21 8 0 11 8 8 20 -3 11 -8 20 -12 20 -4 0 -6 18 -5 40 1 22 -2 40 -7
40 -5 0 -9 9 -9 20 0 10 -9 24 -20 30 -11 6 -31 22 -46 35 -28 26 -44 32 -44
15 0 -12 -53 -1 -58 12 -5 12 -85 10 -135 -4 -31 -8 -55 -8 -84 -1 -26 6 -47
7 -57 1 -10 -5 -25 -7 -34 -3 -14 5 -14 7 -2 15 9 5 -16 7 -61 3 -49 -4 -83
-2 -97 6 -14 8 -22 8 -22 1 0 -5 5 -10 10 -10 6 0 10 -7 10 -15 0 -8 -8 -15
-17 -15 -12 0 -14 -3 -7 -8 10 -6 20 -74 15 -108 -1 -7 -19 -9 -51 -6 -44 4
-50 2 -50 -14 0 -11 -3 -15 -8 -8 -4 6 -15 13 -25 17 -9 4 -16 12 -15 19 2 8
-9 14 -27 16 -16 2 -36 9 -43 15 -21 17 -270 18 -307 2 -17 -7 -86 -15 -155
-18 -69 -3 -132 -8 -141 -12 -10 -4 -19 0 -22 9 -5 13 1 14 33 10 40 -6 57 10
25 22 -8 4 -15 14 -15 24 0 11 -4 22 -10 25 -5 3 -10 16 -10 29 0 19 -8 23
-67 33 -36 7 -69 17 -73 23 -5 9 -9 9 -14 1z m537 -158 c-13 -2 -33 -2 -45 0
-13 2 -3 4 22 4 25 0 35 -2 23 -4z m407 -73 c11 -7 8 -10 -15 -10 -17 0 -36
-5 -43 -12 -9 -9 -12 -9 -12 3 0 9 3 19 7 22 9 10 46 8 63 -3z m635 0 c3 -5
-1 -10 -10 -10 -9 0 -13 5 -10 10 3 6 8 10 10 10 2 0 7 -4 10 -10z m-520 -80
c3 -5 -1 -10 -9 -10 -9 0 -16 5 -16 10 0 6 4 10 9 10 6 0 13 -4 16 -10z m549
-341 c-3 -5 -10 -7 -15 -3 -5 3 -7 10 -3 15 3 5 10 7 15 3 5 -3 7 -10 3 -15z
m132 -167 c-22 -43 -36 -49 -36 -15 0 20 7 31 23 39 30 14 31 11 13 -24z m33
-28 c-4 -63 -19 -67 -19 -5 0 29 5 51 10 51 7 0 10 -19 9 -46z m-79 -26 c0 -4
-12 -8 -27 -8 -19 0 -24 3 -15 8 17 11 42 11 42 0z m-1250 -68 c0 -11 -4 -20
-10 -20 -5 0 -10 9 -10 20 0 11 5 20 10 20 6 0 10 -9 10 -20z m25 -90 c3 -5 1
-10 -4 -10 -6 0 -11 5 -11 10 0 6 2 10 4 10 3 0 8 -4 11 -10z m365 -99 c0 -6
-4 -13 -10 -16 -5 -3 -10 1 -10 9 0 9 5 16 10 16 6 0 10 -4 10 -9z m17 -63
c-3 -8 -6 -5 -6 6 -1 11 2 17 5 13 3 -3 4 -12 1 -19z m363 -103 c0 -8 -4 -15
-10 -15 -5 0 -10 7 -10 15 0 8 5 15 10 15 6 0 10 -7 10 -15z m44 -55 c0 -36
-28 -33 -32 3 -3 23 0 28 14 25 12 -2 18 -12 18 -28z m-884 -450 c0 -11 -4
-20 -9 -20 -14 0 -23 18 -16 30 10 17 25 11 25 -10z m900 -421 c0 -11 -4 -17
-10 -14 -5 3 -10 13 -10 21 0 8 5 14 10 14 6 0 10 -9 10 -21z m47 -185 c-3 -3
-12 -4 -19 -1 -8 3 -5 6 6 6 11 1 17 -2 13 -5z"/>
<path d="M1645 6770 c-3 -5 -1 -10 4 -10 6 0 11 5 11 10 0 6 -2 10 -4 10 -3 0
-8 -4 -11 -10z"/>
<path d="M1710 6731 c0 -12 5 -21 10 -21 6 0 10 6 10 14 0 8 -4 18 -10 21 -5
3 -10 -3 -10 -14z"/>
<path d="M1670 6702 c0 -4 10 -13 23 -21 22 -14 22 -14 3 8 -20 22 -26 25 -26
13z"/>
<path d="M1785 6643 c6 -36 19 -52 39 -53 4 0 5 8 1 18 -4 9 -12 29 -17 45
-15 41 -32 34 -23 -10z"/>
<path d="M1720 6652 c0 -5 7 -13 16 -16 10 -4 14 -1 12 6 -5 15 -28 23 -28 10z"/>
<path d="M2690 6400 c0 -6 7 -13 15 -16 19 -8 20 -33 1 -40 -7 -3 -30 5 -51
18 -28 16 -56 22 -96 23 -32 0 -61 4 -65 8 -8 8 -54 -2 -71 -15 -6 -5 -32 -7
-56 -4 -41 5 -47 3 -53 -17 -5 -12 -7 -25 -6 -29 2 -9 -28 1 -45 15 -25 18
-14 -19 12 -43 29 -27 30 -33 12 -52 -19 -19 -28 -46 -17 -53 5 -3 13 3 19 12
8 15 13 16 29 6 13 -8 30 -9 48 -3 16 4 23 9 17 9 -18 1 -16 41 2 41 8 0 15 8
15 18 0 14 9 17 48 17 26 0 52 -3 58 -7 6 -4 31 -10 55 -14 52 -8 118 -39 126
-59 3 -8 12 -15 20 -15 12 0 13 3 3 15 -23 28 -5 37 23 11 16 -14 30 -26 33
-26 11 0 2 29 -16 50 -14 17 -26 21 -45 16 -30 -8 -32 3 -5 37 11 14 20 30 20
37 0 7 8 9 19 5 11 -3 22 -1 25 4 4 5 -3 12 -14 16 -11 3 -25 15 -30 26 -11
20 -30 26 -30 9z m-32 -79 c12 -6 22 -18 22 -26 0 -16 -12 -20 -24 -8 -8 8
-28 13 -79 18 -44 4 -52 9 -42 25 8 14 92 8 123 -9z"/>
<path d="M2720 6316 c0 -4 8 -16 18 -27 11 -10 25 -32 33 -47 8 -15 24 -35 37
-45 12 -10 20 -22 17 -26 -2 -5 7 -6 20 -3 14 2 25 5 25 7 0 1 -16 19 -35 39
-19 21 -35 46 -35 55 0 10 -6 23 -13 29 -15 13 -67 27 -67 18z"/>
<path d="M2423 6210 c-24 -10 -43 -26 -43 -33 0 -22 31 -29 50 -12 21 19 38
19 36 1 0 -8 4 -15 9 -15 6 0 9 9 7 21 -1 13 5 22 18 25 11 3 20 12 20 19 0
20 -47 17 -97 -6z"/>
<path d="M2544 6215 c11 -8 23 -15 27 -15 4 0 10 -8 13 -17 4 -13 18 -19 46
-20 60 -4 56 12 -11 41 -69 30 -107 35 -75 11z"/>
<path d="M4350 6195 c0 -8 5 -15 10 -15 6 0 10 7 10 15 0 8 -4 15 -10 15 -5 0
-10 -7 -10 -15z"/>
<path d="M2516 6185 c-3 -9 1 -18 10 -22 19 -7 28 2 21 22 -8 19 -23 19 -31 0z"/>
<path d="M2505 6080 c3 -5 10 -10 16 -10 5 0 9 5 9 10 0 6 -7 10 -16 10 -8 0
-12 -4 -9 -10z"/>
<path d="M2545 6080 c3 -5 13 -10 21 -10 8 0 14 5 14 10 0 6 -9 10 -21 10 -11
0 -17 -4 -14 -10z"/>
<path d="M2565 5660 c-3 -5 -1 -10 4 -10 6 0 11 5 11 10 0 6 -2 10 -4 10 -3 0
-8 -4 -11 -10z"/>
<path d="M2632 5450 c0 -14 2 -19 5 -12 2 6 2 18 0 25 -3 6 -5 1 -5 -13z"/>
<path d="M4320 5394 c0 -8 5 -12 10 -9 6 4 8 11 5 16 -9 14 -15 11 -15 -7z"/>
<path d="M4160 5370 c0 -5 18 -10 39 -10 26 0 41 -5 43 -14 2 -12 9 -12 41 3
20 9 34 20 30 24 -10 11 -153 8 -153 -3z"/>
<path d="M4670 5215 c0 -18 -26 -20 -33 -2 -9 22 -27 -15 -27 -57 0 -22 -7
-47 -17 -58 -15 -17 -15 -19 2 -38 10 -11 24 -20 32 -20 7 0 13 -6 13 -14 0
-17 76 -46 123 -46 34 0 37 2 37 30 0 23 -4 30 -20 30 -11 0 -20 4 -20 10 0 5
9 15 20 22 17 11 20 24 20 85 l0 73 -65 0 c-51 0 -65 -3 -65 -15z"/>
<path d="M2625 5200 c-3 -5 -1 -10 4 -10 6 0 11 5 11 10 0 6 -2 10 -4 10 -3 0
-8 -4 -11 -10z"/>
<path d="M4400 5110 c0 -5 6 -10 14 -10 8 0 18 5 21 10 3 6 -3 10 -14 10 -12
0 -21 -4 -21 -10z"/>
<path d="M4720 4710 c0 -5 5 -10 10 -10 6 0 10 5 10 10 0 6 -4 10 -10 10 -5 0
-10 -4 -10 -10z"/>
<path d="M4616 4681 c-8 -12 19 -21 65 -21 28 0 39 4 39 15 0 11 -12 15 -49
15 -28 0 -52 -4 -55 -9z"/>
<path d="M2270 4460 c0 -5 7 -10 16 -10 8 0 12 5 9 10 -3 6 -10 10 -16 10 -5
0 -9 -4 -9 -10z"/>
<path d="M4748 4359 c-26 -47 -70 -67 -188 -87 -126 -22 -167 -35 -342 -112
-78 -35 -111 -76 -69 -87 29 -7 26 -27 -6 -43 l-28 -14 25 -4 c13 -2 26 1 28
7 4 13 32 15 32 2 0 -5 -5 -11 -11 -13 -6 -2 8 -18 31 -37 32 -25 44 -30 55
-21 10 8 15 8 20 -1 4 -6 1 -16 -6 -21 -10 -7 -8 -8 7 -3 15 4 31 -3 52 -20
16 -14 37 -25 45 -25 29 0 86 -30 152 -80 78 -59 130 -80 203 -80 l52 0 0 340
c0 288 -2 340 -14 340 -8 0 -25 -19 -38 -41z m-493 -377 c-3 -3 -11 0 -18 7
-9 10 -8 11 6 5 10 -3 15 -9 12 -12z"/>
<path d="M1124 4336 c-7 -31 4 -55 17 -35 12 19 11 59 -1 59 -5 0 -12 -11 -16
-24z"/>
<path d="M1184 4275 c-3 -25 -4 -49 0 -52 8 -8 26 43 26 73 0 41 -18 26 -26
-21z"/>
<path d="M3547 4293 c-4 -3 -7 -11 -7 -17 0 -6 5 -5 12 2 6 6 9 14 7 17 -3 3
-9 2 -12 -2z"/>
<path d="M1110 4250 c0 -19 3 -21 12 -12 9 9 9 15 0 24 -9 9 -12 7 -12 -12z"/>
<path d="M2450 4256 c0 -10 -9 -16 -24 -16 -23 0 -106 -70 -106 -89 0 -5 -9
-13 -20 -16 -11 -4 -34 -24 -52 -46 -17 -21 -39 -41 -50 -44 -10 -4 -18 -16
-18 -29 0 -41 -20 -82 -51 -105 -40 -29 -45 -22 -18 23 12 20 22 49 22 64 0
15 6 32 15 38 11 8 12 13 4 18 -28 17 -47 -9 -148 -197 -49 -92 -76 -116 -103
-89 -13 12 -16 12 -27 -3 -9 -12 -10 -24 -4 -35 7 -13 1 -42 -21 -101 -17 -46
-34 -90 -39 -99 -15 -25 -12 28 6 90 28 101 34 131 28 141 -7 13 -33 -21 -32
-42 2 -31 -2 -49 -12 -49 -5 0 -10 11 -10 24 0 14 -5 28 -11 32 -18 11 -28
-16 -22 -61 9 -79 7 -105 -8 -105 -6 0 -13 9 -16 20 -3 11 -9 20 -13 20 -5 0
-10 10 -12 22 -2 12 -8 23 -14 25 -7 2 -10 -6 -7 -22 6 -31 -9 -33 -30 -2 -20
29 -49 14 -53 -28 -2 -17 -8 -49 -14 -71 -8 -28 -9 -48 -2 -60 7 -13 6 -41 -4
-89 -7 -38 -13 -88 -14 -111 0 -23 -4 -54 -9 -70 -5 -16 -12 -59 -14 -96 -4
-62 -3 -67 17 -70 20 -3 21 -7 18 -110 -3 -81 0 -108 9 -108 8 0 7 -6 -4 -18
-10 -10 -17 -29 -16 -43 0 -13 3 -18 6 -11 7 17 23 15 23 -3 0 -8 -7 -15 -16
-15 -11 0 -14 -5 -10 -17 9 -22 -15 -193 -26 -187 -4 3 -8 29 -9 57 -1 48 -1
50 -10 22 -9 -28 -6 -143 5 -210 18 -102 18 -107 5 -116 -10 -6 -14 -39 -15
-131 -1 -68 -5 -145 -9 -173 -4 -27 -7 -85 -6 -127 2 -85 -9 -101 -26 -38 -5
22 -6 40 -2 40 17 0 9 20 -8 21 -11 0 -13 3 -5 6 14 6 16 69 2 78 -6 4 -10 -5
-10 -20 0 -15 -4 -24 -10 -20 -5 3 -10 2 -10 -3 0 -5 -18 -12 -40 -16 -22 -3
-40 -11 -40 -16 0 -6 -18 -10 -40 -10 -22 0 -40 5 -40 10 0 6 18 10 40 10 22
0 40 5 40 10 0 6 -18 10 -40 10 -22 0 -40 5 -40 10 0 6 -23 10 -51 10 -43 0
-56 4 -78 28 -22 23 -26 24 -29 10 -2 -10 -6 -18 -8 -18 -9 0 -30 24 -37 43
-3 9 -13 17 -21 17 -8 0 -16 3 -19 8 -2 4 -2 1 -1 -5 5 -18 -67 -17 -91 1 -19
13 -18 15 15 29 19 8 78 23 130 32 52 10 104 19 115 21 11 2 58 7 105 10 47 4
94 12 105 17 11 6 24 10 29 9 5 -2 -7 16 -26 40 -30 36 -42 43 -67 40 -21 -1
-34 3 -37 13 -4 8 -12 15 -20 15 -8 0 -14 3 -14 8 0 4 -9 13 -20 20 -16 10
-25 10 -42 1 -21 -12 -21 -12 5 -26 35 -18 34 -33 0 -33 -17 0 -47 16 -78 40
-27 22 -56 40 -62 40 -7 0 -13 12 -13 27 0 25 -1 25 -19 9 -16 -15 -19 -15
-24 -1 -4 8 -13 15 -21 15 -21 0 -28 42 -9 62 9 10 13 21 9 25 -3 4 -13 -3
-22 -15 -8 -12 -22 -22 -30 -22 -19 0 -18 34 1 50 17 14 20 30 5 30 -6 0 -20
-20 -32 -45 -16 -33 -25 -42 -34 -34 -10 8 -9 18 2 46 8 19 13 42 11 51 -3 13
-7 10 -15 -10 -18 -43 -25 -33 -19 22 4 30 2 48 -3 45 -5 -3 -18 3 -30 15 -24
24 -25 30 -5 30 8 0 15 7 15 15 0 9 -9 15 -25 15 -14 0 -25 5 -25 10 0 6 7 10
15 10 8 0 15 5 15 11 0 7 -10 9 -25 7 -30 -6 -32 5 -5 32 11 11 15 22 10 25
-6 4 -10 1 -10 -5 0 -19 -52 -2 -73 23 -10 12 -16 34 -14 48 2 19 -1 25 -10
22 -20 -8 -15 -43 12 -93 37 -69 85 -172 85 -183 0 -6 6 -18 14 -26 22 -25 56
-137 71 -232 13 -86 11 -133 -8 -156 -12 -17 -28 -17 -26 0 3 26 -2 37 -17 37
-13 0 -15 -6 -9 -27 10 -37 8 -69 -7 -96 -11 -19 -13 -20 -16 -4 -2 9 -10 17
-18 17 -19 0 -18 16 1 24 8 3 15 17 15 31 0 34 -28 33 -36 -2 -3 -16 -7 -33
-9 -39 -2 -7 -21 -14 -42 -16 -21 -3 -45 -7 -53 -9 -10 -3 -14 2 -13 15 1 11
-5 25 -13 33 -8 8 -14 24 -14 36 0 18 -6 22 -30 22 -34 0 -35 -2 -16 -24 7 -9
17 -26 21 -39 l6 -22 -35 20 c-19 12 -40 28 -46 36 -7 7 -18 14 -25 14 -6 0
-20 9 -30 20 -18 20 -45 27 -45 12 0 -5 19 -24 41 -43 35 -29 69 -80 69 -105
0 -3 -10 0 -23 8 -12 8 -39 18 -60 22 -20 4 -68 20 -104 36 -37 15 -72 26 -77
23 -16 -11 38 -41 179 -103 171 -74 170 -74 170 -91 0 -10 16 -14 60 -15 66
-1 114 -14 190 -52 62 -30 63 -31 45 -42 -12 -7 -10 -11 10 -18 22 -9 23 -11
8 -17 -10 -4 -25 -5 -33 -1 -8 3 -15 0 -15 -6 0 -7 14 -9 40 -5 31 4 40 2 40
-10 0 -10 6 -13 16 -9 9 3 27 -3 41 -14 14 -11 31 -20 38 -20 6 0 27 -7 45
-16 24 -13 34 -14 40 -5 5 9 11 9 23 -3 8 -9 20 -16 24 -16 5 0 18 -7 29 -15
16 -13 16 -14 2 -9 -10 3 -18 2 -18 -4 0 -6 -13 -4 -31 5 -40 20 -143 35 -237
35 -57 1 -72 4 -72 15 0 17 -34 12 -84 -13 -39 -19 -43 -18 -20 7 10 11 32 26
49 33 28 12 29 13 10 23 -22 11 -113 25 -157 24 -19 -1 -28 4 -28 14 0 36 -48
8 -85 -49 -16 -25 -16 -26 1 -27 18 0 18 -1 0 -8 -13 -5 -16 -10 -9 -14 7 -4
38 9 70 28 59 36 87 43 98 25 4 -6 10 -8 15 -5 5 3 8 -3 7 -14 0 -11 -4 -18
-8 -15 -4 2 -16 -11 -27 -30 -16 -27 -25 -33 -41 -29 -12 3 -21 1 -21 -6 0 -6
-7 -11 -15 -11 -8 0 -15 -4 -15 -10 0 -13 -40 -33 -48 -25 -4 4 4 16 17 26 17
14 21 23 13 31 -8 8 -18 5 -38 -11 -24 -19 -64 -29 -64 -16 0 3 7 17 16 31 21
31 12 41 -21 26 -15 -7 -25 -8 -25 -2 0 6 -6 10 -14 10 -7 0 -16 9 -19 20 -5
18 -8 19 -31 9 -14 -7 -26 -18 -26 -26 0 -7 -4 -13 -10 -13 -5 0 -10 14 -10
30 0 19 5 30 14 30 8 0 22 10 30 22 13 18 16 19 16 6 0 -25 21 -33 35 -15 7
10 20 17 31 17 14 0 15 -3 6 -12 -14 -14 -16 -38 -3 -38 5 0 27 17 50 38 22
20 51 44 63 53 29 21 16 37 -15 20 -20 -11 -29 -9 -59 9 -26 15 -38 18 -43 9
-8 -12 11 -29 33 -29 6 0 12 -6 12 -14 0 -17 -91 -27 -102 -12 -13 19 -9 26
18 26 22 0 25 2 14 15 -27 32 -78 6 -67 -35 3 -12 0 -20 -6 -20 -18 0 -32 13
-32 30 0 11 -9 14 -30 12 -27 -3 -25 0 24 32 30 19 58 33 63 30 4 -3 8 0 8 5
0 6 -13 11 -28 11 -32 0 -92 27 -92 41 0 5 -22 9 -49 9 -28 0 -53 6 -60 13 -8
10 -26 12 -73 6 -35 -5 -71 -6 -80 -3 -17 5 -18 -46 -18 -965 l0 -971 2400 0
2400 0 0 920 c0 864 -1 921 -17 918 -10 -2 -19 5 -21 16 -3 15 0 18 17 13 22
-5 31 18 10 25 -8 3 -8 15 0 46 14 51 9 62 -29 62 -18 0 -35 9 -47 24 -14 18
-26 22 -49 19 -21 -3 -35 1 -48 16 -19 21 -19 21 25 18 27 -1 49 -8 57 -19 17
-23 70 -48 88 -41 9 3 14 21 14 54 0 41 -3 49 -19 49 -10 0 -24 -7 -31 -15
-16 -19 -39 -19 -46 0 -3 8 -26 26 -51 40 -48 26 -68 32 -58 15 3 -5 1 -10 -4
-10 -6 0 -11 -4 -11 -10 0 -5 7 -10 15 -10 17 0 19 -9 5 -30 -10 -17 -15 -13
-45 36 l-22 37 -32 -35 c-27 -30 -38 -35 -82 -37 -34 -1 -58 -8 -72 -21 -24
-23 -33 -20 -19 7 7 12 7 25 1 34 -6 10 -9 7 -9 -13 0 -17 -5 -28 -14 -28 -9
0 -12 7 -9 20 4 16 -1 23 -26 33 -17 6 -29 16 -27 22 18 44 18 45 -10 55 -16
5 -37 15 -46 20 -10 6 -29 10 -42 10 -14 0 -28 5 -31 10 -4 7 -13 7 -24 0 -15
-7 -20 -4 -29 15 -12 26 -27 32 -36 16 -9 -14 4 -41 20 -41 16 0 19 -16 3 -25
-5 -4 -19 1 -30 10 -15 15 -26 16 -61 9 -33 -7 -52 -6 -80 6 -21 8 -38 18 -38
21 0 4 23 9 51 11 62 6 83 23 54 44 -11 8 -31 17 -45 20 -40 8 -53 19 -61 48
-6 20 -4 26 5 23 7 -3 13 6 14 26 2 17 6 34 10 37 4 3 20 32 36 64 21 45 27
69 23 98 -4 28 -1 38 8 38 8 0 17 10 21 22 8 27 28 48 46 48 8 0 19 13 25 29
8 23 15 29 32 24 12 -3 21 -1 21 6 0 5 -7 8 -15 5 -20 -8 -20 20 1 40 8 9 25
16 36 16 14 0 18 5 14 15 -3 8 0 14 6 12 7 -1 17 8 23 21 5 12 27 30 47 40 21
9 40 23 43 31 8 21 -40 64 -64 56 -15 -5 -21 -2 -21 10 0 15 -2 15 -22 1 -31
-22 -35 -20 -30 13 2 16 -1 32 -7 35 -6 4 -11 19 -12 34 l0 27 -10 -25 c-6
-14 -9 -53 -7 -87 2 -34 0 -59 -4 -57 -4 3 -8 12 -8 20 0 17 -17 19 -22 2 -3
-9 -6 -9 -11 -1 -4 6 -1 17 6 25 8 7 17 30 21 50 5 30 3 40 -14 56 -19 17 -20
25 -11 57 5 20 7 43 4 52 -3 8 -1 18 6 22 8 6 9 15 2 34 -7 17 -7 27 -1 27 5
0 16 12 23 28 11 21 12 42 4 97 -5 39 -10 106 -12 150 -1 44 -7 93 -14 108 -6
16 -11 33 -11 38 0 22 -20 6 -31 -26 -13 -35 -39 -49 -39 -21 0 27 -21 28 -46
1 -30 -33 -30 -37 2 -29 25 6 26 5 19 -25 -6 -28 -4 -33 14 -38 12 -3 21 -9
21 -14 0 -5 7 -9 16 -9 15 0 16 -9 11 -74 -5 -57 -3 -81 9 -105 18 -37 13 -64
-12 -54 -12 4 -15 2 -12 -8 3 -8 12 -13 21 -13 13 1 14 -2 7 -16 -6 -10 -9
-29 -7 -41 1 -12 -3 -24 -10 -26 -7 -3 -10 3 -6 15 6 23 -12 62 -37 79 -10 7
-22 25 -29 40 -13 31 -61 60 -71 42 -4 -5 -7 4 -8 22 0 17 -6 37 -11 42 -6 6
-11 22 -11 36 0 17 -11 35 -32 53 -30 25 -31 27 -11 28 12 0 25 -5 28 -11 4
-6 13 -8 21 -5 7 3 17 -2 22 -11 5 -9 15 -13 21 -9 6 4 9 12 5 17 -3 5 -9 7
-14 4 -14 -9 -23 15 -10 29 8 11 5 20 -13 40 -13 14 -32 26 -41 26 -22 0 -24
26 -7 95 l10 40 -39 -45 -39 -45 -2 30 c-6 77 -5 101 3 117 6 12 3 18 -12 23
-29 9 -60 -3 -88 -36 -23 -28 -52 -39 -52 -19 0 22 -25 8 -70 -39 -31 -32 -57
-51 -76 -53 -28 -3 -32 -8 -78 -103 -3 -6 -11 -2 -19 8 -19 23 -64 22 -72 -2
-6 -20 -86 -91 -103 -91 -11 0 -22 -48 -22 -99 0 -27 -3 -32 -10 -21 -14 21
-1 100 21 129 23 29 24 41 4 41 -11 0 -13 8 -9 33 6 31 6 31 -9 12 -9 -11 -17
-26 -17 -32 0 -7 -9 -18 -20 -25 -16 -10 -18 -20 -13 -54 6 -43 -6 -129 -14
-106 -3 8 -13 -2 -24 -23 -21 -39 -18 -55 11 -55 17 0 18 -4 9 -30 -6 -16 -16
-30 -22 -30 -21 -1 -54 -35 -93 -96 -21 -32 -38 -61 -38 -64 -1 -3 -5 -4 -10
-2 -5 2 -6 -9 -4 -22 4 -20 -4 -36 -33 -68 -22 -23 -39 -49 -39 -59 0 -40 -36
-29 -54 16 -7 19 -8 19 -21 -5 -17 -31 -19 -71 -3 -67 6 1 15 -14 20 -33 9
-42 1 -198 -14 -257 -13 -52 -55 -95 -86 -86 -28 7 -28 12 4 79 14 30 24 62
22 72 -3 11 -16 -8 -37 -51 -18 -38 -38 -70 -44 -72 -7 -2 -27 -6 -46 -9 -26
-5 -31 -3 -23 7 6 6 13 30 17 52 4 22 16 62 26 88 11 26 19 53 19 59 0 25 -52
-92 -76 -172 -29 -97 -47 -121 -92 -122 -21 -1 -37 -9 -47 -24 -10 -15 -21
-21 -35 -17 -13 4 -26 -3 -40 -18 -19 -24 -22 -22 -24 16 -1 11 -8 21 -16 23
-19 3 -40 -49 -40 -97 0 -29 -2 -32 -15 -21 -9 7 -14 27 -13 50 0 20 -2 42 -6
48 -11 18 -26 14 -26 -6 0 -28 -34 -56 -47 -40 -19 24 -26 60 -13 68 10 6 9
15 -1 43 -10 29 -10 53 -1 119 37 270 46 369 35 376 -23 15 -25 77 -4 161 12
46 21 96 21 111 0 15 8 38 18 51 11 13 24 53 31 89 7 36 19 76 26 90 7 14 20
59 30 101 9 42 23 85 30 95 8 11 15 26 15 36 0 18 59 57 78 50 6 -2 12 -12 12
-23 0 -21 15 -25 26 -8 9 16 -44 59 -64 52 -12 -5 -14 -2 -8 13 5 10 12 32 17
47 4 16 12 34 17 40 5 7 10 19 10 27 2 32 15 76 27 90 7 8 15 31 19 50 10 52
44 117 65 123 12 3 18 13 17 28 -1 19 -7 25 -33 27 -25 2 -33 -1 -33 -12z
m-136 -180 c-6 -16 -24 -23 -24 -8 0 10 22 33 27 28 2 -2 1 -11 -3 -20z m76
11 c0 -7 -7 -22 -15 -33 -12 -16 -14 -17 -15 -2 0 23 11 48 21 48 5 0 9 -6 9
-13z m-103 -69 c-3 -8 -6 -5 -6 6 -1 11 2 17 5 13 3 -3 4 -12 1 -19z m64 -29
c-5 -13 -10 -19 -10 -12 -1 15 10 45 15 40 3 -2 0 -15 -5 -28z m-61 -29 c0 -5
-5 -10 -11 -10 -5 0 -7 5 -4 10 3 6 8 10 11 10 2 0 4 -4 4 -10z m-85 -116
c-13 -38 -13 -49 -3 -55 9 -6 7 -9 -9 -9 -19 0 -21 4 -16 43 7 51 35 111 41
85 2 -9 -4 -38 -13 -64z m55 -29 c-7 -8 -10 -21 -7 -30 4 -8 2 -17 -2 -20 -5
-2 -11 5 -14 18 -2 12 -8 30 -11 39 -6 12 -2 17 16 20 27 4 35 -7 18 -27z
m1295 -11 c4 -26 2 -39 -8 -47 -8 -7 -17 -24 -21 -39 -11 -47 -29 -34 -22 15
8 51 27 107 37 107 4 0 10 -16 14 -36z m-1315 -92 c0 -13 -4 -20 -10 -17 -5 3
-10 21 -10 38 0 24 3 28 10 17 5 -8 10 -25 10 -38z m-66 22 c9 -3 16 -11 16
-17 0 -6 7 -19 16 -29 15 -15 16 -27 6 -82 -6 -36 -17 -79 -26 -98 -8 -18 -16
-44 -18 -57 -4 -35 -26 -38 -33 -4 -13 57 -15 60 -29 41 -19 -26 -26 -22 -26
12 0 19 6 33 16 37 8 3 13 12 10 19 -7 18 4 74 15 74 4 0 9 -24 11 -52 2 -39
7 -53 18 -53 22 0 26 90 6 111 -19 18 -21 34 -5 34 7 0 10 14 7 35 -2 19 -3
35 -2 35 1 0 9 -3 18 -6z m-80 -39 c-4 -8 -8 -15 -10 -15 -2 0 -4 7 -4 15 0 8
4 15 10 15 5 0 7 -7 4 -15z m1323 -31 c-3 -36 -11 -51 -32 -68 -34 -27 -29
-53 15 -69 32 -12 49 -37 25 -37 -8 0 -15 4 -15 8 0 5 -12 14 -27 21 -16 7
-38 19 -51 27 l-23 15 43 40 c24 21 43 47 44 57 3 44 5 52 14 52 6 0 9 -19 7
-46z m-1346 -45 c-14 -62 -44 -128 -48 -108 -4 16 48 162 54 155 2 -2 -1 -23
-6 -47z m1425 24 c-10 -10 -19 5 -10 18 6 11 8 11 12 0 2 -7 1 -15 -2 -18z
m44 -72 c0 -4 -9 -20 -20 -34 -23 -29 -22 -30 45 -46 68 -15 139 -18 140 -6 2
42 46 46 74 6 l21 -30 -22 -3 c-34 -5 -33 -27 1 -39 17 -6 31 -16 31 -23 0 -6
13 -27 30 -46 46 -55 35 -57 -18 -4 -83 83 -110 104 -126 98 -12 -5 -143 16
-199 33 -14 4 -18 0 -15 -13 4 -22 35 -32 105 -33 28 -1 55 -5 58 -11 3 -5 -2
-24 -11 -42 -22 -44 -24 -45 -34 -28 -7 12 -12 12 -21 3 -9 -9 -4 -21 21 -50
36 -40 55 -48 56 -23 0 24 15 50 24 45 5 -3 11 -1 14 4 4 5 2 12 -4 16 -13 8
-13 65 0 65 6 0 13 -7 16 -15 4 -8 12 -15 18 -15 7 0 17 -5 23 -11 9 -9 6 -17
-13 -31 -13 -11 -22 -23 -19 -28 3 -4 -5 -10 -17 -13 -21 -6 -20 -8 15 -35 32
-26 41 -28 79 -21 24 4 53 10 65 14 33 11 43 -38 14 -69 -11 -12 -21 -32 -21
-44 0 -32 -16 -27 -29 8 -9 28 -8 32 14 40 14 5 25 16 25 25 0 17 -4 18 -28 6
-9 -5 -48 -14 -85 -20 -63 -11 -71 -10 -102 9 -18 11 -50 42 -71 68 -21 26
-62 72 -91 103 -61 65 -61 79 1 153 38 44 56 56 56 37z m-1779 -172 c-21 -52
-48 -137 -61 -189 -12 -52 -30 -124 -41 -160 -10 -36 -24 -94 -30 -130 -7 -36
-17 -69 -22 -75 -11 -13 2 153 14 177 5 9 14 40 20 70 5 29 14 64 19 78 5 14
19 59 31 100 12 41 30 93 40 116 11 22 19 45 19 51 0 12 41 66 46 60 2 -2 -14
-46 -35 -98z m252 39 c-4 -31 -10 -48 -19 -48 -15 0 -19 26 -5 34 4 3 11 20
15 37 9 47 15 31 9 -23z m67 -13 c0 -5 -5 -3 -10 5 -5 8 -10 20 -10 25 0 6 5
3 10 -5 5 -8 10 -19 10 -25z m1320 25 c0 -5 -8 -10 -17 -10 -15 0 -16 2 -3 10
19 12 20 12 20 0z m-40 -18 c0 -5 -19 -15 -42 -21 -24 -7 -48 -17 -55 -23 -13
-10 -33 -3 -33 11 0 14 58 33 118 40 6 0 12 -3 12 -7z m-244 -26 c-4 -16 0
-30 9 -40 20 -20 19 -38 -2 -34 -18 3 -30 55 -19 84 9 24 19 16 12 -10z
m-1051 -13 c-4 -10 -7 -35 -6 -55 1 -28 -3 -40 -18 -47 -27 -15 -32 -2 -20 45
14 50 27 74 40 74 7 0 8 -7 4 -17z m68 -3 c15 0 18 -5 12 -22 -4 -13 -15 -57
-25 -98 -9 -41 -21 -74 -26 -73 -6 1 -8 -28 -6 -65 2 -37 5 -91 5 -120 2 -40
5 -51 16 -47 11 4 11 3 2 -9 -9 -11 -10 -20 -1 -35 14 -27 2 -71 -27 -98 -12
-12 -23 -32 -23 -44 0 -14 -5 -19 -14 -16 -28 11 -36 -61 -10 -88 16 -15 16
-23 0 -113 -20 -112 -35 -148 -29 -70 3 29 0 64 -6 78 -9 24 -10 24 -10 -9 -1
-19 -7 -42 -15 -50 -7 -9 -18 -29 -24 -46 -10 -30 -10 -30 -11 -4 -1 14 10 91
24 169 13 79 27 194 30 254 4 61 8 116 10 121 1 6 -3 19 -10 29 -11 15 -14 6
-19 -61 -12 -161 -37 -337 -52 -362 l-15 -26 6 30 c21 107 26 144 35 270 19
254 20 268 31 282 6 7 15 10 20 7 5 -3 9 2 9 10 0 9 -4 16 -10 16 -5 0 -10 10
-10 21 0 18 4 21 28 16 44 -9 53 4 58 79 6 86 10 102 26 86 7 -7 21 -12 31
-12z m1336 -34 c41 -53 65 -106 48 -106 -6 0 -32 -23 -58 -51 l-47 -51 -16 23
c-9 13 -16 29 -16 36 0 18 -42 83 -68 106 -23 21 -19 47 7 48 9 0 34 9 56 19
22 10 45 19 50 19 6 0 25 -19 44 -43z m-259 24 c0 -5 -5 -10 -11 -10 -5 0 -7
5 -4 10 3 6 8 10 11 10 2 0 4 -4 4 -10z m-1220 -24 c0 -3 -4 -8 -10 -11 -5 -3
-10 -1 -10 4 0 6 5 11 10 11 6 0 10 -2 10 -4z m1311 -54 c30 -34 69 -105 69
-125 0 -8 6 -17 14 -20 7 -3 14 -17 14 -32 0 -35 11 -44 27 -21 9 12 20 16 31
12 23 -9 64 20 64 46 0 20 1 20 18 5 19 -18 42 -23 42 -9 1 22 18 34 37 23 15
-7 22 -25 27 -66 3 -31 13 -70 21 -85 8 -16 15 -40 15 -53 0 -21 -144 -323
-160 -337 -3 -3 -12 -25 -20 -49 -8 -24 -30 -69 -49 -100 -52 -86 -122 -231
-116 -242 9 -14 35 -11 35 4 0 23 25 67 38 67 6 0 12 6 13 13 0 9 2 9 6 -1 2
-6 8 -10 11 -8 4 2 8 -10 9 -27 1 -28 1 -29 -7 -9 -5 12 -14 22 -19 22 -13 0
-33 -38 -26 -49 5 -10 -16 -120 -32 -160 -9 -23 -10 -23 -16 15 -4 21 -4 49
-1 62 7 26 -4 29 -22 5 -12 -16 -13 -14 -8 14 5 25 2 34 -10 39 -9 3 -16 11
-16 16 0 6 6 5 15 -2 13 -11 15 -7 17 21 0 19 0 45 -1 58 -1 13 4 31 12 40 8
9 24 37 37 63 16 33 27 45 39 41 13 -4 13 -3 2 5 -11 8 -8 21 21 73 21 38 40
90 46 128 7 35 21 83 32 107 12 24 18 49 14 55 -9 15 -33 -27 -34 -58 0 -12
-4 -25 -10 -28 -5 -3 -20 -38 -32 -78 -22 -74 -67 -166 -131 -271 -45 -73 -40
-68 -70 -57 -25 10 -25 9 -20 -30 5 -33 3 -38 -11 -33 -11 4 -14 13 -10 30 5
19 2 24 -13 24 -15 0 -27 -16 -47 -62 -14 -35 -26 -66 -26 -70 0 -15 28 4 33
23 3 10 10 19 15 19 14 0 3 -116 -14 -159 -8 -18 -14 -42 -14 -52 0 -11 -7
-19 -15 -19 -20 0 -21 97 -1 126 9 13 11 25 6 35 -17 26 -41 -12 -45 -72 -2
-30 -6 -53 -9 -51 -3 1 -10 2 -15 2 -5 0 -14 14 -20 30 -12 36 -35 41 -29 5 4
-21 3 -23 -13 -14 -13 6 -25 6 -39 -3 -26 -17 -31 -33 -20 -64 6 -14 10 -39
10 -55 0 -43 -32 -35 -41 9 -4 19 -12 39 -18 45 -6 6 -11 19 -11 29 0 10 -5
18 -11 18 -7 0 -8 -7 -4 -17 17 -39 35 -131 35 -175 0 -53 -16 -73 -25 -31
-23 107 -53 93 -45 -21 1 -18 -2 -26 -9 -22 -6 4 -12 24 -12 44 -1 22 -3 28
-6 15 -3 -14 -9 -20 -19 -16 -9 3 -14 -2 -14 -16 0 -36 -18 -23 -44 30 -13 28
-26 47 -29 42 -2 -4 0 -46 4 -92 9 -87 5 -122 -6 -55 -3 22 -13 51 -21 66 -8
14 -14 40 -14 56 0 32 -13 48 -30 37 -7 -4 -7 -11 -2 -18 11 -15 -8 -147 -21
-147 -5 0 -7 6 -4 13 6 17 -9 44 -19 34 -5 -4 -8 -24 -8 -43 0 -54 -21 -19
-35 59 -6 34 -17 90 -23 125 -6 34 -15 62 -19 62 -13 0 -18 -55 -6 -65 15 -13
20 -72 7 -80 -6 -3 -10 3 -10 14 0 23 -17 37 -23 19 -2 -7 -2 -3 -1 9 2 12 0
25 -6 28 -13 8 -13 41 1 80 11 31 13 31 45 20 18 -6 42 -19 52 -28 19 -17 20
-17 26 13 5 27 9 30 28 24 25 -8 48 -28 48 -43 0 -5 5 -13 11 -17 16 -10 0 57
-19 79 -8 9 -13 18 -11 20 32 19 109 55 109 51 0 -17 -43 -62 -54 -58 -8 3
-17 1 -21 -5 -3 -7 2 -11 13 -11 11 0 22 -7 26 -15 10 -27 24 -16 31 26 6 34
10 40 27 36 14 -4 22 1 28 19 6 15 17 24 30 24 16 0 20 4 15 19 -4 13 4 30 24
54 35 40 65 40 118 1 27 -20 32 -21 37 -8 4 11 -1 18 -14 21 -11 3 -20 9 -20
14 0 5 -6 9 -14 9 -7 0 -16 9 -19 21 -5 19 -4 19 11 6 9 -8 23 -12 29 -10 7 3
16 -2 19 -11 4 -11 13 -14 30 -10 19 5 24 2 24 -12 0 -11 14 8 31 41 17 33 42
73 55 88 13 16 27 41 30 55 4 15 24 57 45 94 22 36 39 72 39 78 0 6 5 8 10 5
6 -3 10 -17 10 -31 0 -13 5 -24 10 -24 6 0 10 17 10 38 0 20 4 54 9 75 6 26 5
57 -5 99 -18 76 -13 96 11 43 18 -39 19 -39 23 -13 2 17 -7 47 -22 75 -13 27
-37 88 -52 137 -24 74 -34 93 -66 119 -50 40 -50 57 1 50 21 -3 47 0 57 6 16
9 14 11 -16 11 -58 2 -93 7 -123 19 -25 10 -27 13 -16 33 13 27 49 57 67 58 8
0 11 -12 10 -32 -2 -24 1 -33 12 -33 8 0 14 6 12 14 -1 7 3 19 9 27 7 8 9 17
5 21 -6 7 32 53 44 53 4 0 18 -12 31 -28z m519 -12 c0 -11 -2 -20 -5 -20 -2 0
-9 9 -15 20 -9 16 -8 20 5 20 8 0 15 -9 15 -20z m85 -10 c3 -5 2 -10 -4 -10
-5 0 -13 5 -16 10 -3 6 -2 10 4 10 5 0 13 -4 16 -10z m-1965 -21 c0 -5 -4 -9
-10 -9 -5 0 -10 7 -10 16 0 8 5 12 10 9 6 -3 10 -10 10 -16z m2030 -55 c0 -28
-20 -74 -32 -74 -4 0 -3 8 4 19 9 14 8 27 -5 59 l-17 41 25 -11 c16 -7 25 -19
25 -34z m-403 17 c10 -16 9 -20 -5 -23 -12 -4 -17 2 -17 19 0 28 6 29 22 4z
m-482 -1 c3 -5 1 -10 -4 -10 -6 0 -11 5 -11 10 0 6 2 10 4 10 3 0 8 -4 11 -10z
m-1145 -25 c0 -14 -4 -25 -10 -25 -5 0 -10 11 -10 25 0 14 5 25 10 25 6 0 10
-11 10 -25z m1547 -17 c-3 -8 -6 -5 -6 6 -1 11 2 17 5 13 3 -3 4 -12 1 -19z
m-1552 -27 c3 -5 1 -12 -5 -16 -5 -3 -10 1 -10 9 0 18 6 21 15 7z m1795 -21
c0 -10 -7 -20 -15 -24 -9 -3 -15 -18 -15 -38 0 -43 -16 -24 -24 30 -6 38 -4
43 16 51 28 11 38 6 38 -19z m-649 4 c13 -15 18 -43 40 -199 21 -151 45 -111
30 50 -5 55 -7 102 -4 105 10 10 72 -73 88 -118 20 -58 48 -220 48 -287 1 -45
-6 -62 -67 -160 -37 -60 -84 -126 -105 -145 -77 -71 -129 -99 -141 -75 -3 6
10 11 28 13 20 2 36 10 39 20 3 9 15 27 25 39 15 16 17 26 10 39 -5 9 -7 26
-5 38 4 19 3 19 -16 -4 -12 -14 -19 -33 -17 -42 3 -11 -1 -15 -11 -11 -13 5
-13 3 -2 -15 17 -27 3 -42 -15 -17 -7 10 -18 15 -25 11 -18 -12 -41 13 -41 45
0 16 -4 29 -9 29 -5 0 -14 13 -21 30 -11 26 -9 32 9 56 24 30 21 44 -5 23 -38
-31 -57 -35 -80 -14 -17 15 -20 24 -12 38 8 16 7 17 -11 8 -11 -6 -21 -11 -23
-11 -3 0 -3 106 1 138 3 28 17 8 35 -48 10 -34 24 -59 30 -57 6 2 11 11 10 20
0 10 -1 38 -2 63 -2 39 -5 45 -20 40 -17 -6 -19 1 -20 76 -3 97 7 137 43 180
15 18 31 42 36 55 5 13 13 23 19 23 5 0 10 7 10 15 0 16 16 21 23 8 3 -5 -3
-33 -13 -63 -9 -30 -20 -68 -24 -85 l-7 -30 19 24 c11 13 36 58 57 100 37 75
61 111 75 111 4 0 13 -7 21 -16z m804 -14 c-3 -5 -11 -10 -16 -10 -6 0 -7 5
-4 10 3 6 11 10 16 10 6 0 7 -4 4 -10z m127 -72 c-9 -9 -12 -7 -12 12 0 19 3
21 12 12 9 -9 9 -15 0 -24z m-2135 -95 c-2 -16 -4 -5 -4 22 0 28 2 40 4 28 2
-13 2 -35 0 -50z m2273 39 c0 -15 -2 -15 -10 -2 -13 20 -13 33 0 25 6 -3 10
-14 10 -23z m-120 -27 c0 -8 -4 -15 -10 -15 -5 0 -7 7 -4 15 4 8 8 15 10 15 2
0 4 -7 4 -15z m90 -6 c0 -11 -4 -18 -10 -14 -5 3 -7 12 -3 20 7 21 13 19 13
-6z m-145 1 c3 -5 1 -10 -4 -10 -6 0 -11 5 -11 10 0 6 2 10 4 10 3 0 8 -4 11
-10z m-328 -182 c-3 -8 -6 -5 -6 6 -1 11 2 17 5 13 3 -3 4 -12 1 -19z m270
-10 c-3 -8 -6 -5 -6 6 -1 11 2 17 5 13 3 -3 4 -12 1 -19z m-16 -30 c3 -33 -4
-64 -17 -78 -12 -12 -14 -10 -14 22 0 20 3 43 6 52 7 19 24 21 25 4z m-321
-70 c0 -13 -12 -45 -25 -73 -14 -27 -25 -58 -25 -67 0 -10 -4 -18 -9 -18 -5 0
-16 -16 -26 -36 -9 -20 -18 -34 -20 -32 -6 5 18 73 31 89 6 8 21 47 33 87 22
70 41 94 41 50z m227 -10 c-3 -7 -5 -2 -5 12 0 14 2 19 5 13 2 -7 2 -19 0 -25z
m-1963 -14 c3 -8 2 -12 -4 -9 -6 3 -10 -2 -10 -11 0 -10 -3 -15 -6 -11 -6 5 4
47 11 47 1 0 6 -7 9 -16z m1783 -36 c-3 -7 -5 -2 -5 12 0 14 2 19 5 13 2 -7 2
-19 0 -25z m-1862 -15 c-3 -10 -10 -37 -15 -61 -10 -55 -25 -70 -16 -17 13 80
18 95 28 95 6 0 7 -8 3 -17z m165 -23 c0 -5 -5 -10 -11 -10 -5 0 -7 5 -4 10 3
6 8 10 11 10 2 0 4 -4 4 -10z m640 -67 c0 -41 -4 -50 -24 -59 -18 -9 -28 -9
-37 0 -8 8 -13 8 -16 -1 -10 -27 -30 -13 -25 17 5 34 16 38 31 13 9 -16 10
-16 11 4 0 17 44 73 57 73 2 0 3 -21 3 -47z m180 21 c9 -9 17 -11 30 -4 23 12
30 4 30 -37 0 -22 7 -37 20 -45 25 -16 26 -38 2 -38 -12 0 -25 15 -36 41 -21
48 -40 58 -65 35 -16 -15 -19 -15 -31 -1 -17 20 -27 19 -33 -5 -4 -17 -10 -20
-34 -14 -44 10 -59 29 -44 56 10 20 20 23 81 25 48 1 72 -3 80 -13z m128 -51
c-2 -10 -7 -18 -12 -18 -5 0 -10 8 -12 18 -1 9 4 17 13 17 8 0 13 -7 11 -17z
m-1295 -13 c3 -11 1 -18 -4 -14 -5 3 -9 12 -9 20 0 20 7 17 13 -6z m865 -27
c2 -16 -4 -22 -30 -26 -18 -2 -34 -4 -35 -3 -1 1 8 14 20 29 25 30 41 30 45 0z
m454 -16 c-1 -9 5 -28 14 -43 20 -29 27 -87 10 -81 -6 2 -14 20 -17 41 -3 20
-11 42 -18 49 -15 15 -14 60 2 54 6 -2 11 -11 9 -20z m-891 -109 l-8 -73 -2
60 c-1 33 -4 78 -7 100 l-5 40 15 -27 c13 -21 14 -40 7 -100z m60 19 c-13 -13
-15 15 -3 53 7 24 7 23 10 -9 2 -18 -1 -38 -7 -44z m-1121 7 c0 -19 5 -24 25
-24 14 0 25 -4 25 -10 0 -5 9 -10 20 -10 11 0 20 -4 20 -10 0 -5 17 -18 39
-29 21 -11 41 -26 44 -34 3 -8 21 -22 41 -31 20 -9 36 -23 36 -31 0 -42 -114
26 -147 88 -8 15 -11 15 -27 4 -29 -21 -14 -63 23 -70 42 -9 57 -41 36 -73
-11 -17 -24 -24 -38 -22 -28 4 -34 34 -8 43 19 6 18 7 -5 30 -14 14 -31 25
-38 25 -8 0 -16 9 -19 20 -3 13 -10 18 -21 14 -21 -8 -34 25 -15 37 10 6 17 2
23 -12 12 -26 30 -19 34 14 3 20 0 25 -11 21 -8 -3 -18 0 -22 6 -4 6 -18 15
-31 20 -15 6 -22 15 -19 25 3 8 7 22 10 31 7 22 25 7 25 -22z m2160 1 c0 -9
-44 -55 -52 -55 -5 0 0 14 12 30 19 26 40 40 40 25z m-436 -28 c13 -10 16 -20
11 -36 -6 -18 -13 -22 -43 -19 -37 3 -50 21 -38 54 7 18 46 18 70 1z m1036 9
c0 -3 -4 -8 -10 -11 -5 -3 -10 -1 -10 4 0 6 5 11 10 11 6 0 10 -2 10 -4z
m-1649 -83 c-8 -15 -10 -10 -11 23 0 22 3 44 8 48 11 12 14 -52 3 -71z m53 4
c-4 -18 -6 -58 -5 -89 1 -32 -3 -58 -8 -58 -5 0 -7 -8 -4 -18 7 -27 -37 -136
-49 -124 -12 12 -2 82 12 82 16 0 12 26 -6 41 -19 16 -15 57 14 120 11 24 23
54 27 67 10 34 27 15 19 -21z m1711 23 c-3 -5 -13 -10 -21 -10 -8 0 -14 5 -14
10 0 6 9 10 21 10 11 0 17 -4 14 -10z m-1676 -32 c-8 -14 -14 -18 -17 -10 -4
13 17 46 25 38 3 -2 -1 -15 -8 -28z m71 24 c0 -13 -12 -22 -22 -16 -10 6 -1
24 13 24 5 0 9 -4 9 -8z m1330 -2 c0 -5 -4 -10 -10 -10 -5 0 -10 5 -10 10 0 6
5 10 10 10 6 0 10 -4 10 -10z m-1760 -31 c10 -18 9 -20 -12 -17 -12 2 -24 11
-26 21 -5 24 25 22 38 -4z m499 -70 c-6 -27 -8 -56 -5 -64 2 -7 0 -15 -7 -18
-6 -2 -12 -17 -14 -33 -1 -16 -9 -72 -18 -124 -9 -52 -19 -110 -22 -127 -3
-18 -10 -33 -15 -33 -7 0 -8 23 -3 64 4 42 3 66 -4 71 -7 4 -11 -5 -11 -22 -1
-15 -7 -39 -15 -53 -8 -14 -15 -50 -16 -80 l-2 -55 -7 50 c-4 28 -3 63 1 79 5
17 8 46 7 66 0 19 5 59 12 88 13 55 8 74 -12 54 -8 -8 -15 -9 -25 -1 -7 7 -13
8 -13 4 0 -4 8 -13 17 -20 15 -11 15 -17 5 -40 -7 -14 -18 -25 -25 -22 -16 5
-13 101 4 142 7 17 13 37 13 45 1 28 41 99 55 100 11 0 13 -15 8 -72 -4 -65
-4 -68 5 -28 19 83 48 132 48 80 0 -32 20 -23 27 12 6 29 7 30 14 9 5 -12 4
-44 -2 -72z m-284 -5 c-8 -67 -25 -81 -25 -21 0 51 22 124 28 93 2 -10 1 -43
-3 -72z m505 44 c0 -16 -3 -19 -11 -11 -6 6 -8 16 -5 22 11 17 16 13 16 -11z
m305 -15 c-18 -42 -32 -60 -40 -51 -5 5 44 88 52 88 2 0 -4 -17 -12 -37z
m-250 -5 c-3 -13 -7 -28 -7 -34 -1 -6 -10 -9 -20 -6 -21 5 -21 4 -8 36 12 33
45 36 35 4z m-1228 -14 c-9 -9 -28 6 -21 18 4 6 10 6 17 -1 6 -6 8 -13 4 -17z
m293 -11 c0 -24 -25 -9 -28 17 -3 21 -2 22 12 11 9 -7 16 -20 16 -28z m1124
28 c3 -4 -1 -17 -9 -27 -10 -15 -16 -16 -26 -7 -6 6 -9 19 -6 27 7 17 32 22
41 7z m463 -76 c-12 -25 -26 -45 -30 -45 -11 0 -6 82 6 97 6 9 15 10 27 3 18
-10 18 -12 -3 -55z m818 43 c13 -11 21 -26 18 -31 -4 -6 0 -8 10 -4 12 5 15
-1 15 -24 -1 -23 -5 -29 -24 -29 -12 0 -29 7 -37 15 -8 8 -17 11 -21 8 -3 -4
-6 -2 -6 4 0 6 7 13 15 17 12 4 13 11 5 31 -16 43 -12 45 25 13z m-1420 -8 c4
-6 -6 -10 -22 -10 -22 0 -25 2 -13 10 19 12 27 12 35 0z m671 -44 c-8 -23 -16
-34 -20 -27 -10 15 14 85 25 74 4 -4 2 -25 -5 -47z m-1696 11 c0 -5 -4 -5 -10
-2 -5 3 -10 14 -10 23 0 15 2 15 10 2 5 -8 10 -19 10 -23z m760 -26 c0 -11 5
-23 10 -26 6 -4 11 -25 11 -48 -1 -23 2 -73 4 -112 5 -62 4 -68 -9 -52 -16 21
-21 16 -31 -33 -12 -58 -23 -72 -46 -60 -11 6 -17 15 -15 19 3 4 7 51 10 103
4 79 25 191 43 221 8 14 23 7 23 -12z m1280 12 c-1 -15 -36 -50 -71 -71 -41
-25 -49 -27 -49 -11 0 5 5 7 10 4 6 -4 17 9 25 29 8 19 23 40 32 45 21 12 53
14 53 4z m1155 -13 c-3 -5 -12 -7 -20 -3 -21 7 -19 13 6 13 11 0 18 -4 14 -10z
m-2350 -43 c6 -23 -19 -85 -28 -70 -3 4 -8 32 -12 61 -7 52 -7 54 14 43 11 -7
23 -22 26 -34z m620 3 c14 -28 14 -30 -12 -55 -15 -14 -33 -25 -40 -25 -18 0
-16 27 1 33 8 3 18 22 22 41 3 20 8 36 10 36 2 0 10 -13 19 -30z m-508 4 c-3
-3 -12 -4 -19 -1 -8 3 -5 6 6 6 11 1 17 -2 13 -5z m-1927 -47 c0 -19 -1 -20
-20 -2 -11 10 -20 21 -20 26 0 4 9 5 20 2 12 -3 20 -14 20 -26z m2375 23 c3
-5 1 -10 -4 -10 -6 0 -11 5 -11 10 0 6 2 10 4 10 3 0 8 -4 11 -10z m172 -12
c-3 -8 -6 -5 -6 6 -1 11 2 17 5 13 3 -3 4 -12 1 -19z m44 -1 c-10 -9 -11 -8
-5 6 3 10 9 15 12 12 3 -3 0 -11 -7 -18z m1099 -24 c-5 -20 -19 -45 -32 -54
-29 -23 -97 -59 -109 -59 -14 0 -11 50 4 51 6 0 -1 5 -17 9 -16 5 -50 7 -75 5
-29 -3 -37 -2 -22 3 21 7 22 9 8 21 -14 11 -21 10 -46 -8 -17 -13 -45 -21 -67
-21 l-39 0 50 26 c28 14 59 32 70 38 11 7 35 13 52 14 25 2 31 -1 27 -13 -7
-18 -3 -18 69 -4 31 7 57 16 57 20 0 5 18 9 39 9 l39 0 -8 -37z m333 6 c5 -20
57 -28 57 -9 0 13 27 13 36 -1 3 -6 1 -16 -5 -22 -6 -6 -11 -19 -11 -29 0 -25
-15 -22 -34 7 -9 14 -23 25 -31 25 -8 0 -15 5 -15 11 0 6 -6 9 -14 6 -15 -6
-30 19 -21 33 9 14 32 1 38 -21z m37 21 c13 -8 13 -10 -2 -10 -9 0 -20 5 -23
10 -8 13 5 13 25 0z m-3930 -15 c0 -9 -12 -18 -30 -21 -16 -4 -35 -13 -41 -20
-19 -23 -30 -5 -13 21 22 34 84 48 84 20z m2748 -3 c2 -7 -3 -12 -12 -12 -9 0
-16 7 -16 16 0 17 22 14 28 -4z m129 -19 c-6 -21 -16 -41 -22 -45 -5 -4 2 -8
18 -8 16 0 27 -5 27 -14 0 -18 -42 -29 -53 -13 -5 7 -6 3 -2 -10 5 -18 3 -22
-8 -17 -23 9 -29 -13 -12 -40 9 -14 14 -29 11 -35 -3 -5 2 -12 11 -15 14 -6
13 -9 -7 -31 -16 -17 -21 -31 -16 -49 3 -15 11 -26 17 -26 6 0 9 6 6 13 -2 6
-1 21 3 32 6 18 9 17 29 -15 24 -41 27 -70 7 -70 -8 0 -22 -10 -30 -22 -15
-20 -16 -21 -34 -5 -10 9 -25 17 -34 17 -8 0 -25 11 -37 24 -15 16 -47 30 -97
42 -61 14 -74 20 -68 33 4 9 9 26 11 39 4 17 12 22 39 22 19 0 34 2 34 4 0 2
3 11 6 20 4 11 1 16 -10 16 -9 0 -16 -4 -16 -10 0 -5 -4 -10 -10 -10 -15 0 -6
64 13 84 15 17 17 18 17 3 0 -9 4 -17 9 -17 23 0 41 14 41 31 0 28 29 69 49
69 9 1 32 9 51 19 19 11 42 19 52 20 14 1 15 -4 5 -36z m-2843 5 c-10 -13 -20
-25 -21 -27 -2 -2 -3 1 -3 7 0 11 27 42 37 42 3 0 -2 -10 -13 -22z m2333 -40
c-3 -8 -6 -5 -6 6 -1 11 2 17 5 13 3 -3 4 -12 1 -19z m343 13 c0 -5 -6 -14
-14 -20 -12 -10 -13 -8 -9 8 5 21 23 30 23 12z m-1336 -63 c-5 -8 -10 -5 -14
8 -10 25 0 41 12 20 5 -9 6 -21 2 -28z m936 22 c0 -5 -5 -10 -11 -10 -5 0 -7
5 -4 10 3 6 8 10 11 10 2 0 4 -4 4 -10z m1070 -12 c0 -6 7 -20 17 -30 15 -17
15 -18 -11 -18 -28 0 -42 20 -32 45 6 18 26 20 26 3z m570 -28 c0 -5 -2 -10
-4 -10 -3 0 -8 5 -11 10 -3 6 -1 10 4 10 6 0 11 -4 11 -10z m-2583 -32 c-3 -8
-6 -5 -6 6 -1 11 2 17 5 13 3 -3 4 -12 1 -19z m-74 -110 c-10 -40 -11 -37 -11
42 0 79 1 82 11 43 7 -29 7 -57 0 -85z m1047 118 c0 -3 -4 -8 -10 -11 -5 -3
-10 -1 -10 4 0 6 5 11 10 11 6 0 10 -2 10 -4z m-580 -53 c0 -20 -3 -34 -6 -30
-3 3 -5 7 -4 9 1 2 -3 15 -9 29 -10 27 -5 43 10 33 5 -3 9 -21 9 -41z m1690
23 c0 -8 -9 -18 -20 -21 -11 -3 -20 -11 -20 -16 0 -5 -9 -9 -20 -9 -11 0 -20
7 -20 15 0 8 -1 18 -2 22 -2 4 11 11 27 14 48 11 55 10 55 -5z m-3935 -26 c-3
-5 -10 -10 -16 -10 -5 0 -9 5 -9 10 0 6 7 10 16 10 8 0 12 -4 9 -10z m2497
-92 c-6 -6 -7 0 -4 19 5 21 7 23 10 9 2 -10 0 -22 -6 -28z m-1655 16 c-3 -3
-12 -4 -19 -1 -8 3 -5 6 6 6 11 1 17 -2 13 -5z m2579 -21 c-10 -10 -19 5 -10
18 6 11 8 11 12 0 2 -7 1 -15 -2 -18z m-2168 4 c-1 -2 3 -11 10 -20 8 -9 11
-21 7 -28 -6 -8 -10 -7 -16 2 -10 16 -12 66 -3 57 3 -4 4 -8 2 -11z m1206 -27
c4 -25 3 -31 -4 -20 -5 8 -10 26 -10 39 0 32 6 24 14 -19z m-197 -2 c-3 -7 -5
-2 -5 12 0 14 2 19 5 13 2 -7 2 -19 0 -25z m63 7 c0 -8 -2 -15 -4 -15 -2 0 -6
7 -10 15 -3 8 -1 15 4 15 6 0 10 -7 10 -15z m791 -48 c4 -15 3 -29 -2 -33 -16
-10 -29 7 -29 37 0 37 21 34 31 -4z m-2551 19 c0 -2 -7 -6 -15 -10 -8 -3 -15
-1 -15 4 0 6 7 10 15 10 8 0 15 -2 15 -4z m-516 -21 c-7 -16 -24 -21 -24 -6 0
8 7 13 27 20 1 1 0 -6 -3 -14z m746 5 c0 -5 -4 -10 -10 -10 -5 0 -10 5 -10 10
0 6 5 10 10 10 6 0 10 -4 10 -10z m-128 -21 c-13 -5 -33 -11 -45 -13 -12 -2
-35 -9 -50 -15 -40 -15 -44 -14 -20 8 22 21 48 28 103 29 31 1 33 0 12 -9z
m65 -5 c-3 -3 -12 -4 -19 -1 -8 3 -5 6 6 6 11 1 17 -2 13 -5z m246 -1 c-7 -2
-19 -2 -25 0 -7 3 -2 5 12 5 14 0 19 -2 13 -5z m317 -11 c0 -10 5 -23 11 -29
6 -6 9 -21 7 -34 l-3 -24 -14 24 c-24 43 -31 81 -15 81 8 0 14 -8 14 -18z
m1880 -2 c0 -5 -7 -10 -15 -10 -8 0 -15 5 -15 10 0 6 7 10 15 10 8 0 15 -4 15
-10z m-26 -56 c3 -8 2 -12 -4 -9 -6 3 -10 10 -10 16 0 14 7 11 14 -7z m-2604
-72 c0 -11 -41 -34 -48 -27 -4 4 2 13 12 21 22 15 36 18 36 6z m50 -12 c0 -5
-2 -10 -4 -10 -3 0 -8 5 -11 10 -3 6 -1 10 4 10 6 0 11 -4 11 -10z m1260 -110
c0 -5 -2 -10 -4 -10 -3 0 -8 5 -11 10 -3 6 -1 10 4 10 6 0 11 -4 11 -10z
m-980 -114 c0 -8 -4 -18 -10 -21 -6 -3 -7 1 -4 9 5 13 -1 16 -30 16 -20 0 -36
-4 -36 -10 0 -5 11 -10 25 -10 28 0 29 -3 15 -31 -8 -13 -7 -19 0 -19 6 0 9
-4 6 -9 -3 -5 -47 -7 -98 -5 -61 2 -97 -1 -107 -9 -12 -9 -13 -9 -7 1 4 6 2
12 -3 12 -7 0 -11 -34 -11 -94 l0 -93 84 -2 c80 -2 84 -1 89 21 4 13 4 34 0
46 -5 20 -2 22 31 22 35 0 36 -1 36 -36 0 -21 4 -33 10 -29 6 4 10 -13 10 -44
0 -34 -4 -51 -12 -51 -9 0 -8 -4 2 -10 10 -6 -37 -10 -142 -10 l-157 0 -21 27
c-14 18 -17 29 -9 33 7 5 12 52 14 124 3 136 13 156 76 156 21 0 41 5 45 11 4
7 -7 10 -34 8 -23 -2 -44 0 -48 4 -4 4 59 7 139 7 121 0 147 -3 147 -14z m128
7 c-19 -5 -24 -19 -8 -25 5 -1 10 -57 11 -124 l1 -121 63 -2 62 -2 7 32 c3 17
6 71 6 120 0 48 5 91 10 94 15 10 12 23 -7 28 -10 3 6 5 35 6 29 0 52 -3 52
-9 0 -5 -8 -10 -17 -11 -12 -1 -10 -4 7 -9 14 -4 21 -8 15 -9 -6 -1 -11 -50
-13 -119 -2 -70 -9 -136 -18 -164 l-16 -48 -116 0 c-112 0 -118 1 -145 26 -21
19 -26 31 -21 47 4 12 10 24 14 27 4 3 8 53 8 113 0 59 3 116 7 126 4 13 0 21
-12 24 -10 3 7 5 37 5 30 0 47 -2 38 -5z m548 -161 c38 -92 74 -166 80 -165 5
2 10 70 12 153 1 89 6 150 12 150 6 0 10 5 10 11 0 5 -4 7 -10 4 -5 -3 -10 -1
-10 4 0 7 49 11 143 11 141 0 144 0 167 -26 19 -19 22 -27 11 -33 -9 -6 -10
-10 -2 -16 11 -6 9 -34 -5 -103 -3 -16 -1 -21 6 -17 7 4 6 -2 -2 -14 -7 -12
-23 -24 -35 -27 -13 -4 -23 -9 -23 -13 0 -3 16 -30 35 -60 19 -29 35 -55 35
-57 0 -2 -26 -4 -57 -4 -57 0 -58 1 -84 43 -30 47 -59 103 -59 112 0 3 5 3 10
0 6 -3 10 -2 10 4 0 5 10 13 23 17 20 7 19 9 -13 15 -29 5 -25 7 26 8 l61 1 0
38 0 37 -78 -3 -77 -3 -4 -66 c-2 -36 0 -67 3 -69 3 -2 7 -33 8 -69 l2 -65
-115 0 c-106 0 -115 2 -121 20 -6 20 -32 25 -92 20 -26 -2 -28 9 -11 57 10 26
17 33 39 33 25 0 27 2 20 28 -5 15 -16 45 -26 67 l-17 40 -23 -50 c-12 -28
-28 -77 -35 -110 -20 -98 -26 -105 -82 -105 -26 0 -48 4 -48 9 0 22 63 170 71
166 8 -6 29 51 27 75 -1 8 0 24 1 35 1 17 3 18 12 5 9 -12 10 -11 6 8 -4 15 2
27 16 37 19 13 20 17 7 25 -10 7 3 10 45 10 l60 0 71 -168z m754 153 c-7 -8
-10 -15 -7 -15 3 0 13 -3 23 -7 13 -5 15 -3 9 7 -5 8 -4 11 3 6 6 -4 9 -13 6
-20 -3 -8 -2 -16 3 -19 5 -3 8 -63 7 -133 -2 -177 2 -174 -190 -174 l-144 0 0
79 c0 44 4 82 9 85 10 6 7 92 -5 164 l-7 42 153 0 c134 0 151 -2 140 -15z
m189 -82 c0 -64 -3 -91 -9 -78 -8 19 -9 19 -9 -2 -1 -13 4 -23 9 -23 6 0 10
-30 10 -70 0 -38 4 -70 8 -70 9 0 82 182 116 288 l18 52 59 0 c33 0 59 -4 59
-10 0 -5 -6 -10 -12 -10 -7 0 -5 -5 5 -11 9 -5 17 -14 17 -20 0 -5 13 -37 29
-72 15 -34 41 -91 57 -127 16 -36 34 -68 39 -72 14 -10 25 86 23 212 l-1 105
53 3 c47 3 52 1 40 -12 -7 -10 -8 -16 -2 -16 9 0 30 -28 84 -115 7 -11 16 -22
19 -25 3 -3 13 -16 23 -30 9 -14 17 -18 15 -10 -1 8 -1 59 0 113 l1 97 53 -1
c28 -1 44 -3 35 -6 -19 -5 -24 -19 -9 -25 4 -1 11 -66 14 -143 4 -77 9 -155
13 -173 7 -35 2 -37 -67 -26 -31 5 -41 15 -76 73 -23 36 -53 91 -66 121 -33
72 -42 52 -34 -86 l5 -104 -113 0 c-101 0 -113 2 -118 19 -3 14 -17 19 -56 23
-28 3 -54 8 -57 10 -3 3 2 22 10 42 12 28 21 36 41 36 l25 0 -16 38 c-9 20
-19 47 -21 60 -6 25 -23 30 -23 7 0 -8 -4 -23 -9 -33 -6 -9 -19 -48 -31 -87
-11 -38 -24 -77 -27 -85 -3 -8 -5 -18 -5 -22 1 -5 -48 -8 -108 -8 l-110 0 0
185 0 185 50 0 50 0 -1 -97z m1130 92 c-3 -2 -37 -5 -77 -6 -88 -2 -96 -16
-11 -17 34 -1 63 -3 65 -5 3 -2 -1 -16 -7 -31 -13 -28 -53 -37 -62 -13 -4 9
-7 9 -14 0 -5 -6 -38 -14 -73 -16 -61 -3 -65 -5 -68 -28 l-3 -25 88 0 c48 1
89 -3 90 -8 0 -5 8 -13 17 -18 12 -7 16 -24 16 -67 0 -48 -5 -64 -31 -99 l-31
-42 -117 0 c-65 0 -120 2 -122 4 -2 3 -3 25 -1 50 l4 45 106 3 c99 3 107 4
107 23 0 18 -8 20 -85 23 -115 4 -130 18 -130 116 0 58 4 74 22 93 21 22 28
23 171 23 83 0 148 -2 146 -5z m-2602 -47 c-3 -7 -5 -2 -5 12 0 14 2 19 5 13
2 -7 2 -19 0 -25z m-179 -125 c-10 -2 -26 -2 -35 0 -10 3 -2 5 17 5 19 0 27
-2 18 -5z m29 -40 c-3 -10 -5 -2 -5 17 0 19 2 27 5 18 2 -10 2 -26 0 -35z
m159 -273 c2 -79 -8 -104 -39 -94 -12 4 -34 7 -48 6 -22 0 -28 5 -33 30 -8 41
-8 113 1 122 4 4 32 6 63 4 l55 -3 1 -65z m139 50 c-11 -13 -31 -20 -52 -20
-41 0 -41 -23 0 -28 31 -4 36 -20 10 -28 -10 -3 -26 -10 -36 -15 -12 -7 -19
-6 -21 3 -8 26 -14 97 -8 102 3 3 32 6 65 6 59 0 60 0 42 -20z m395 10 c0 -5
-5 -10 -11 -10 -5 0 -7 -4 -4 -10 3 -5 -3 -17 -15 -27 -11 -10 -20 -23 -20
-31 0 -10 -23 -13 -100 -11 -56 1 -103 -1 -106 -3 -6 -7 -7 -179 0 -186 3 -3
6 5 6 18 0 21 1 22 13 8 16 -21 168 -31 160 -10 -3 6 0 12 7 12 7 0 9 7 6 15
-3 8 -8 21 -11 28 -3 8 6 13 27 14 18 0 27 -1 21 -4 -7 -2 -13 -9 -13 -15 0
-6 6 -8 13 -5 9 3 13 -7 14 -34 1 -22 8 -48 16 -59 14 -20 15 -20 28 12 17 42
36 61 54 54 9 -3 12 0 8 10 -3 8 5 26 18 40 20 21 20 24 5 18 -20 -8 -20 -3
-1 51 l7 20 -17 -20 -17 -20 6 20 c3 11 14 45 23 75 l18 55 75 0 74 0 63 -150
c35 -82 63 -154 62 -160 0 -5 -7 4 -14 20 -8 17 -14 24 -15 17 0 -21 20 -53
30 -47 5 3 13 -3 19 -12 11 -20 11 -20 16 50 2 32 20 48 44 40 10 -3 7 3 -7
14 -20 17 -21 20 -7 40 14 20 14 22 -4 28 -16 5 -21 19 -26 70 -10 87 -5 95
49 95 45 0 77 -19 34 -21 l-23 0 24 -10 c17 -7 21 -13 13 -22 -6 -6 -9 -38 -7
-69 2 -52 0 -57 -21 -62 -13 -4 -24 -11 -24 -16 0 -14 18 -12 23 3 2 6 7 9 11
5 4 -3 3 -16 -4 -27 -9 -17 -8 -22 5 -27 9 -4 14 -13 11 -20 -4 -11 11 -14 74
-14 92 0 111 -19 23 -22 -56 -2 -56 -2 -12 -5 l47 -4 -11 -30 -11 -29 -88 0
c-52 0 -88 4 -88 10 0 6 -5 10 -11 10 -5 0 -7 -4 -4 -10 3 -6 -3 -10 -14 -10
-12 0 -21 6 -22 13 0 9 -2 10 -6 0 -6 -17 -73 -17 -73 0 0 8 -3 7 -10 -3 -7
-12 -10 -11 -16 5 -10 26 -23 35 -56 35 -16 0 -28 4 -28 9 0 5 -9 11 -20 14
-13 3 -20 0 -20 -9 0 -8 -4 -14 -10 -14 -6 0 -5 11 2 28 21 49 29 54 75 49 40
-4 43 -3 38 17 -2 11 -2 15 1 8 3 -6 10 -10 15 -7 5 4 3 12 -4 20 -8 9 -16 10
-24 3 -10 -8 -13 -5 -14 8 -1 11 -1 23 0 27 1 5 -8 11 -19 14 -11 3 -20 12
-20 19 0 8 -7 17 -15 21 -19 7 -44 -23 -45 -51 0 -11 -7 -28 -17 -38 -11 -13
-12 -18 -3 -18 10 0 10 -3 0 -16 -8 -8 -15 -26 -16 -40 -1 -13 -9 -38 -18 -54
-8 -17 -10 -30 -5 -30 6 0 8 -4 4 -10 -3 -5 -74 -7 -183 -3 -97 3 -185 5 -194
5 -10 -1 -18 3 -18 9 0 5 -5 9 -11 9 -5 0 -7 -4 -4 -10 12 -19 -12 -10 -34 13
-21 24 -20 57 2 57 8 0 7 4 -1 12 -6 6 -8 16 -3 22 12 16 21 86 11 86 -4 0 -7
18 -5 40 1 22 -1 43 -6 46 -5 3 -7 10 -4 15 4 5 1 9 -6 9 -7 0 0 14 16 30 l29
30 148 0 c92 0 148 -4 148 -10z m972 -20 c-1 -17 1 -21 7 -12 6 10 11 5 20
-19 13 -38 14 -49 2 -30 -6 9 -8 4 -6 -18 1 -17 5 -34 8 -38 4 -3 4 -17 0 -31
-4 -17 -2 -23 6 -18 6 4 14 0 17 -9 4 -9 13 -14 22 -10 12 4 11 0 -3 -21 -16
-24 -16 -26 -1 -21 9 4 16 2 16 -3 0 -6 7 -10 15 -10 18 0 19 -11 3 -29 -11
-11 -10 -13 3 -8 9 3 21 -3 28 -15 11 -18 14 -17 48 29 20 26 47 60 61 75 28
30 30 25 -50 130 -32 42 -58 79 -58 82 0 3 27 6 59 6 58 0 60 -1 100 -47 36
-42 42 -46 51 -31 34 55 62 78 98 77 40 0 92 -17 60 -18 -10 -1 -18 -7 -18
-13 0 -7 -15 -30 -33 -50 -68 -78 -68 -77 -61 -114 3 -18 9 -34 13 -34 4 0 12
-14 18 -30 9 -23 16 -28 29 -23 12 4 15 3 10 -5 -4 -7 -2 -12 6 -12 7 0 25
-14 40 -32 28 -33 30 -51 3 -28 -10 8 -15 9 -15 1 0 -7 -19 -11 -47 -11 -44 0
-50 3 -73 37 -14 21 -44 57 -67 80 -37 38 -43 40 -55 26 -9 -12 -9 -15 -1 -9
9 5 11 2 6 -10 -5 -13 -2 -15 15 -9 34 10 28 -29 -10 -75 -29 -35 -59 -56 -43
-30 3 6 1 10 -4 10 -6 0 -11 -4 -11 -10 0 -5 -9 -10 -21 -10 -11 0 -17 5 -14
10 3 6 2 10 -4 10 -5 0 -12 -6 -15 -12 -5 -10 -7 -10 -12 0 -3 6 -10 12 -15
12 -6 0 -7 -5 -4 -11 9 -13 -47 -8 -57 6 -5 6 -11 5 -16 -3 -7 -10 -13 -7 -27
14 -14 21 -14 28 -4 35 7 4 -10 6 -39 5 -42 -2 -52 0 -52 13 -1 11 -6 8 -15
-9 -17 -30 -19 -15 -4 29 11 30 15 32 45 29 19 -2 34 -1 34 3 0 17 -60 139
-68 139 -5 0 -17 -18 -27 -40 -10 -22 -21 -38 -24 -35 -4 2 -7 -5 -7 -16 0
-10 4 -19 8 -19 16 0 7 -20 -9 -21 -12 0 -13 -2 -5 -6 8 -3 10 -9 4 -16 -5 -7
-17 -36 -26 -64 l-18 -53 -44 0 c-24 0 -44 2 -44 5 0 2 13 37 29 77 15 40 43
118 61 173 18 55 35 104 37 108 3 4 37 7 76 5 70 -3 72 -4 69 -28z m724 -20
c20 -27 40 -48 45 -44 5 3 23 25 39 50 31 44 31 44 90 44 l60 0 -98 -127 c-54
-71 -117 -154 -140 -185 -38 -51 -47 -58 -77 -58 -21 0 -35 5 -35 13 0 9 -3 8
-9 -2 -5 -7 -14 -12 -20 -10 -7 3 16 41 55 91 l66 88 -65 87 c-72 96 -72 97 9
102 41 2 45 0 80 -49z m-1939 -147 c-3 -10 -5 -4 -5 12 0 17 2 24 5 18 2 -7 2
-21 0 -30z m242 22 c-8 -7 -127 -10 -135 -2 -4 4 26 7 66 7 40 0 71 -2 69 -5z
m-691 -37 c-3 -7 -14 -14 -26 -16 -20 -3 -22 -9 -22 -68 0 -35 -4 -64 -8 -64
-5 0 -7 24 -4 54 4 48 2 55 -24 80 l-29 26 58 0 c43 0 58 -3 55 -12z m162 8
c0 -2 -7 -6 -15 -10 -8 -3 -15 -1 -15 4 0 6 7 10 15 10 8 0 15 -2 15 -4z m110
-11 c0 -10 -10 -15 -29 -15 -16 0 -31 -6 -34 -12 -2 -7 -6 -1 -9 15 -5 26 -3
27 33 27 28 0 39 -4 39 -15z m-119 -52 c0 -16 2 -39 4 -53 1 -14 -1 -32 -6
-40 -6 -13 -9 -12 -15 3 -3 10 -4 21 0 24 13 13 -18 33 -50 33 -31 0 -34 -3
-34 -30 0 -16 -4 -30 -10 -30 -11 0 -13 42 -4 75 4 17 12 20 50 17 35 -3 44
-1 44 12 0 28 20 17 21 -11z m100 -3 c30 0 22 -20 -11 -26 -54 -11 -32 -44 30
-44 15 0 30 -6 33 -14 4 -10 -8 -14 -54 -15 l-59 -1 0 32 c0 52 11 80 27 74 8
-3 23 -6 34 -6z m494 -199 c8 -16 24 -55 36 -86 12 -31 25 -53 29 -48 5 4 22
42 38 83 28 70 32 75 62 78 24 3 31 0 28 -10 -2 -7 -22 -62 -43 -121 l-39
-108 -49 3 -49 3 -39 105 c-21 58 -39 111 -39 118 0 6 11 12 25 12 17 0 29 -9
40 -29z m398 15 c14 -11 17 -29 17 -103 0 -112 -7 -121 -100 -121 -40 0 -74 5
-87 14 -21 13 -23 22 -23 105 0 58 4 95 13 104 16 19 155 20 180 1z m109 -72
l3 -86 39 -4 c48 -4 48 -4 33 -34 -11 -22 -20 -25 -75 -28 l-62 -3 0 121 0
120 30 0 29 0 3 -86z m383 74 c14 -6 25 -14 26 -17 0 -3 2 -15 5 -26 2 -11 -2
-30 -8 -43 -9 -17 -9 -25 0 -34 19 -19 14 -63 -10 -85 -18 -16 -37 -21 -90
-22 l-68 -1 0 32 0 33 52 0 c39 0 53 4 53 14 0 10 -13 15 -45 15 -41 1 -45 3
-48 29 -3 26 -2 27 47 27 39 0 51 4 51 15 0 12 -13 15 -55 15 -54 0 -55 0 -55
30 0 30 0 30 60 30 32 0 71 -5 85 -12z m-195 -194 c0 -30 -2 -32 -32 -30 -22
2 -34 8 -36 20 -6 29 4 41 37 42 29 1 31 -1 31 -32z"/>
<path d="M3530 3413 c0 -19 11 -43 21 -43 13 0 11 14 -6 36 -8 10 -15 14 -15
7z"/>
<path d="M2041 3204 c0 -11 3 -14 6 -6 3 7 2 16 -1 19 -3 4 -6 -2 -5 -13z"/>
<path d="M2040 3046 c0 -8 5 -18 10 -21 6 -3 10 3 10 14 0 12 -4 21 -10 21 -5
0 -10 -6 -10 -14z"/>
<path d="M2033 2815 c0 -22 2 -30 4 -17 2 12 2 30 0 40 -3 9 -5 -1 -4 -23z"/>
<path d="M2010 2630 c0 -5 5 -10 10 -10 6 0 10 5 10 10 0 6 -4 10 -10 10 -5 0
-10 -4 -10 -10z"/>
<path d="M3540 3038 c-54 -66 -90 -114 -90 -122 0 -5 -18 -45 -41 -88 -22 -44
-38 -82 -36 -84 8 -8 36 34 83 126 26 52 60 107 76 122 15 14 28 33 28 42 0
19 -6 20 -20 4z"/>
<path d="M3541 2766 c-7 -8 -8 -17 -3 -20 6 -3 13 1 16 10 9 23 2 28 -13 10z"/>
<path d="M3415 2750 c-3 -5 -1 -10 4 -10 6 0 11 5 11 10 0 6 -2 10 -4 10 -3 0
-8 -4 -11 -10z"/>
<path d="M3346 2721 c-4 -7 -5 -15 -2 -18 9 -9 19 4 14 18 -4 11 -6 11 -12 0z"/>
<path d="M3370 2630 c-11 -11 -20 -27 -20 -35 0 -24 37 4 43 32 5 28 2 28 -23
3z"/>
<path d="M3290 2449 c0 -5 5 -7 10 -4 6 3 10 8 10 11 0 2 -4 4 -10 4 -5 0 -10
-5 -10 -11z"/>
<path d="M2920 2110 c0 -5 7 -10 16 -10 8 0 12 5 9 10 -3 6 -10 10 -16 10 -5
0 -9 -4 -9 -10z"/>
<path d="M2780 2030 c0 -5 5 -10 10 -10 6 0 10 5 10 10 0 6 -4 10 -10 10 -5 0
-10 -4 -10 -10z"/>
<path d="M2570 1942 c0 -10 7 -27 15 -38 14 -19 14 -19 15 3 0 28 -10 53 -21
53 -5 0 -9 -8 -9 -18z"/>
<path d="M2680 1935 c0 -8 4 -15 10 -15 5 0 7 7 4 15 -4 8 -8 15 -10 15 -2 0
-4 -7 -4 -15z"/>
<path d="M3242 2804 c-1 -6 -31 -40 -67 -76 -52 -51 -65 -71 -65 -95 0 -27 3
-30 22 -25 l21 5 -21 -21 c-12 -12 -22 -29 -22 -38 0 -14 2 -14 22 0 29 21 38
20 38 -1 1 -10 7 -3 15 16 18 41 18 41 0 41 -8 0 -15 5 -15 11 0 6 -8 8 -19 4
-35 -11 -31 13 10 59 42 46 64 57 72 34 9 -27 18 2 14 48 -2 27 -4 44 -5 38z"/>
<path d="M3060 2584 c0 -8 5 -12 10 -9 6 3 10 10 10 16 0 5 -4 9 -10 9 -5 0
-10 -7 -10 -16z"/>
<path d="M2860 2575 c0 -8 4 -15 10 -15 5 0 7 7 4 15 -4 8 -8 15 -10 15 -2 0
-4 -7 -4 -15z"/>
<path d="M2940 2540 c0 -5 5 -10 10 -10 6 0 10 5 10 10 0 6 -4 10 -10 10 -5 0
-10 -4 -10 -10z"/>
<path d="M3155 2520 c-3 -5 -1 -10 4 -10 6 0 11 5 11 10 0 6 -2 10 -4 10 -3 0
-8 -4 -11 -10z"/>
<path d="M3127 2472 c-19 -21 -22 -32 -7 -32 10 0 34 39 27 46 -2 2 -11 -4
-20 -14z"/>
<path d="M2970 2410 c0 -11 2 -20 4 -20 2 0 6 9 9 20 3 11 1 20 -4 20 -5 0 -9
-9 -9 -20z"/>
<path d="M3080 2419 c0 -5 5 -7 10 -4 6 3 10 8 10 11 0 2 -4 4 -10 4 -5 0 -10
-5 -10 -11z"/>
<path d="M3510 1845 c0 -9 -7 -18 -15 -21 -19 -8 -9 -24 14 -24 21 0 46 -25
46 -46 0 -18 19 -19 23 -1 1 7 -9 26 -23 41 -14 15 -25 36 -25 47 0 10 -4 19
-10 19 -5 0 -10 -7 -10 -15z"/>
<path d="M3466 1771 c-4 -5 -2 -12 3 -15 5 -4 12 -2 15 3 4 5 2 12 -3 15 -5 4
-12 2 -15 -3z"/>
<path d="M3440 1720 c0 -5 7 -10 16 -10 8 0 12 5 9 10 -3 6 -10 10 -16 10 -5
0 -9 -4 -9 -10z"/>
<path d="M3573 1633 c9 -9 20 -13 24 -9 4 4 1 11 -7 16 -25 16 -35 11 -17 -7z"/>
<path d="M960 1210 c0 -5 5 -10 10 -10 6 0 10 5 10 10 0 6 -4 10 -10 10 -5 0
-10 -4 -10 -10z"/>
<path d="M1225 1210 c3 -5 8 -10 11 -10 2 0 4 5 4 10 0 6 -5 10 -11 10 -5 0
-7 -4 -4 -10z"/>
<path d="M1720 1209 c0 -5 5 -7 10 -4 6 3 10 8 10 11 0 2 -4 4 -10 4 -5 0 -10
-5 -10 -11z"/>
<path d="M2180 1206 c0 -2 7 -7 16 -10 8 -3 12 -2 9 4 -6 10 -25 14 -25 6z"/>
<path d="M1800 1040 c0 -5 5 -10 11 -10 5 0 7 5 4 10 -3 6 -8 10 -11 10 -2 0
-4 -4 -4 -10z"/>
<path d="M1685 959 c-11 -16 -1 -19 13 -3 7 8 8 14 3 14 -5 0 -13 -5 -16 -11z"/>
<path d="M2390 1131 c-11 -8 -15 -31 -15 -96 l0 -85 67 0 67 0 6 43 c4 23 5
65 3 92 l-3 50 -55 3 c-30 1 -62 -2 -70 -7z"/>
<path d="M2557 1053 c3 -7 6 -13 8 -13 2 0 5 6 8 13 3 8 -1 14 -8 14 -7 0 -11
-6 -8 -14z"/>
<path d="M2530 1020 c0 -5 5 -10 10 -10 6 0 10 5 10 10 0 6 -4 10 -10 10 -5 0
-10 -4 -10 -10z"/>
<path d="M2735 1210 c-3 -5 -1 -10 4 -10 6 0 11 5 11 10 0 6 -2 10 -4 10 -3 0
-8 -4 -11 -10z"/>
<path d="M3420 1210 c0 -5 5 -10 10 -10 6 0 10 5 10 10 0 6 -4 10 -10 10 -5 0
-10 -4 -10 -10z"/>
<path d="M3198 1203 c6 -2 18 -2 25 0 6 3 1 5 -13 5 -14 0 -19 -2 -12 -5z"/>
<path d="M2742 1125 c0 -16 2 -22 5 -12 2 9 2 23 0 30 -3 6 -5 -1 -5 -18z"/>
<path d="M2670 1059 c0 -5 5 -7 10 -4 6 3 10 8 10 11 0 2 -4 4 -10 4 -5 0 -10
-5 -10 -11z"/>
<path d="M3595 1210 c-3 -5 1 -10 9 -10 9 0 16 5 16 10 0 6 -4 10 -9 10 -6 0
-13 -4 -16 -10z"/>
<path d="M3565 1169 c-4 -6 -5 -12 -2 -15 2 -3 7 2 10 11 7 17 1 20 -8 4z"/>
<path d="M1192 723 l3 -48 43 -3 c42 -3 43 -3 38 25 -2 15 -5 38 -5 51 -1 19
-6 22 -42 22 l-40 0 3 -47z"/>
<path d="M2160 650 c0 -20 29 -95 39 -98 9 -3 8 6 -3 32 -16 38 -35 74 -36 66z"/>
<path d="M2030 533 c0 -12 3 -14 8 -6 4 6 21 13 37 16 27 4 27 4 -7 6 -30 1
-38 -3 -38 -16z"/>
<path d="M1876 514 c-4 -9 -4 -19 -1 -22 2 -3 7 3 11 12 4 9 4 19 1 22 -2 3
-7 -3 -11 -12z"/>
<path d="M1623 503 c20 -2 54 -2 75 0 20 2 3 4 -38 4 -41 0 -58 -2 -37 -4z"/>
<path d="M2378 503 c7 -3 16 -2 19 1 4 3 -2 6 -13 5 -11 0 -14 -3 -6 -6z"/>
<path d="M1817 470 c-3 -11 -1 -20 4 -20 5 0 9 9 9 20 0 11 -2 20 -4 20 -2 0
-6 -9 -9 -20z"/>
<path d="M3051 678 c11 -21 25 -38 30 -38 14 0 11 5 -21 41 l-31 34 22 -37z"/>
<path d="M2763 670 c24 -60 50 -110 57 -110 3 0 6 9 6 20 0 11 -6 20 -13 20
-7 0 -10 7 -7 15 4 8 1 15 -6 15 -6 0 -9 3 -7 8 3 4 -6 21 -20 37 l-24 30 14
-35z"/>
<path d="M2617 644 c-4 -4 -7 -17 -7 -28 1 -19 1 -20 11 -3 11 19 8 43 -4 31z"/>
<path d="M3031 546 c-16 -19 -11 -29 8 -17 7 5 12 14 9 21 -3 9 -8 7 -17 -4z"/>
<path d="M2580 540 c0 -5 5 -10 10 -10 6 0 10 5 10 10 0 6 -4 10 -10 10 -5 0
-10 -4 -10 -10z"/>
<path d="M2748 543 c12 -2 30 -2 40 0 9 3 -1 5 -23 4 -22 0 -30 -2 -17 -4z"/>
<path d="M2570 509 c0 -5 5 -7 10 -4 6 3 10 8 10 11 0 2 -4 4 -10 4 -5 0 -10
-5 -10 -11z"/>
<path d="M3479 563 c-13 -16 -12 -17 4 -4 16 13 21 21 13 21 -2 0 -10 -8 -17
-17z"/>
<path d="M2160 252 c0 -62 -3 -60 63 -53 4 1 7 26 7 56 l0 55 -35 0 -35 0 0
-58z"/>
<path d="M2278 4242 c-21 -4 -24 -42 -4 -42 8 0 18 9 21 21 8 24 6 27 -17 21z"/>
<path d="M3690 4231 c0 -5 7 -14 15 -21 16 -14 18 -10 9 14 -6 17 -24 22 -24
7z"/>
<path d="M2516 4193 c-12 -13 -6 -32 13 -38 23 -7 57 -55 45 -64 -10 -6 -34
-47 -34 -56 0 -16 32 -1 40 19 5 14 22 32 37 40 19 11 23 15 11 16 -10 0 -24
10 -33 23 -18 29 -71 68 -79 60z"/>
<path d="M3266 4157 c3 -10 9 -15 12 -12 3 3 0 11 -7 18 -10 9 -11 8 -5 -6z"/>
<path d="M2455 4050 c-3 -5 -2 -10 4 -10 5 0 13 5 16 10 3 6 2 10 -4 10 -5 0
-13 -4 -16 -10z"/>
<path d="M2692 4034 c1 -9 9 -19 16 -22 9 -3 13 2 10 14 -1 9 -9 19 -16 22 -9
3 -13 -2 -10 -14z"/>
<path d="M3057 4020 c-18 -30 -14 -37 13 -20 8 5 11 12 7 16 -4 4 -2 13 4 21
6 7 7 13 2 13 -5 0 -17 -13 -26 -30z"/>
<path d="M2480 4019 c0 -5 5 -7 10 -4 6 3 10 8 10 11 0 2 -4 4 -10 4 -5 0 -10
-5 -10 -11z"/>
<path d="M1490 3990 c6 -11 15 -20 20 -20 16 0 11 27 -6 34 -24 9 -26 8 -14
-14z"/>
<path d="M2677 4004 c-12 -13 -7 -45 8 -50 8 -4 15 -14 15 -23 0 -13 2 -13 9
-2 5 7 13 11 19 7 6 -3 13 -2 16 2 7 11 -58 75 -67 66z"/>
<path d="M3990 3991 c0 -5 5 -13 10 -16 6 -3 10 -2 10 4 0 5 -4 13 -10 16 -5
3 -10 2 -10 -4z"/>
<path d="M2520 3975 c0 -8 2 -15 4 -15 2 0 6 7 10 15 3 8 1 15 -4 15 -6 0 -10
-7 -10 -15z"/>
<path d="M198 3973 c7 -3 16 -2 19 1 4 3 -2 6 -13 5 -11 0 -14 -3 -6 -6z"/>
<path d="M3931 3954 c-12 -14 -10 -15 10 -12 12 1 24 9 27 16 5 17 -20 14 -37
-4z"/>
<path d="M2439 3958 c-9 -47 -9 -88 1 -88 7 0 9 8 5 19 -3 11 -1 22 5 26 13 8
13 45 0 45 -5 0 -10 -1 -11 -2z"/>
<path d="M3032 3938 c-6 -14 -15 -29 -21 -32 -11 -7 -4 -36 9 -36 11 0 33 67
27 83 -3 7 -9 0 -15 -15z"/>
<path d="M2540 3884 c0 -9 41 -44 52 -44 15 0 8 38 -8 44 -20 8 -44 8 -44 0z"/>
<path d="M2706 3872 c-4 -6 -13 -9 -20 -6 -13 5 -26 -23 -26 -59 0 -16 2 -16
25 -1 14 9 25 12 25 8 0 -5 5 -2 10 8 11 19 -2 68 -14 50z m-1 -32 c3 -5 2
-10 -4 -10 -5 0 -13 5 -16 10 -3 6 -2 10 4 10 5 0 13 -4 16 -10z"/>
<path d="M3742 3860 c13 -20 28 -27 28 -12 0 10 -22 32 -32 32 -5 0 -3 -9 4
-20z"/>
<path d="M2997 3853 c-4 -3 -7 -17 -7 -30 0 -17 -5 -23 -17 -21 -15 2 -18 -4
-16 -36 1 -21 10 -47 20 -58 14 -15 15 -21 4 -27 -9 -6 -10 -10 -2 -15 6 -4 9
-12 5 -17 -9 -16 -34 10 -34 36 0 13 -8 33 -19 46 l-18 23 -14 -25 c-37 -67
-49 -129 -24 -129 13 0 12 -4 -5 -22 -19 -21 -28 -58 -12 -58 4 0 18 16 31 35
20 30 29 35 61 35 46 0 56 -11 65 -73 5 -29 12 -46 19 -44 15 5 15 57 -1 147
-7 41 -10 112 -8 158 3 63 2 82 -9 82 -7 0 -16 -3 -19 -7z"/>
<path d="M1847 3823 c-13 -12 -7 -43 8 -43 16 0 38 34 28 44 -8 8 -28 8 -36
-1z"/>
<path d="M2590 3799 c0 -5 5 -7 10 -4 6 3 10 8 10 11 0 2 -4 4 -10 4 -5 0 -10
-5 -10 -11z"/>
<path d="M677 3784 c6 -15 23 -19 23 -5 0 5 -7 11 -14 14 -10 4 -13 1 -9 -9z"/>
<path d="M1430 3774 c0 -8 5 -12 10 -9 6 4 8 11 5 16 -9 14 -15 11 -15 -7z"/>
<path d="M3171 3774 c0 -11 3 -14 6 -6 3 7 2 16 -1 19 -3 4 -6 -2 -5 -13z"/>
<path d="M2635 3770 c-3 -6 -18 -7 -33 -4 l-27 7 20 -22 c19 -22 19 -22 -5
-66 -13 -24 -21 -48 -16 -52 10 -10 35 23 43 57 3 14 14 36 25 49 10 13 18 28
18 32 0 12 -17 11 -25 -1z"/>
<path d="M4100 3751 c0 -12 29 -35 36 -28 4 3 -1 13 -9 22 -17 17 -27 19 -27
6z"/>
<path d="M2730 3738 c0 -7 -3 -23 -6 -35 -5 -17 -2 -23 10 -23 17 0 32 42 21
59 -9 15 -25 14 -25 -1z"/>
<path d="M2306 3732 c-3 -5 -8 -29 -11 -53 -6 -41 -5 -43 9 -25 9 11 16 35 16
53 0 33 -4 40 -14 25z"/>
<path d="M3140 3716 c0 -9 5 -16 10 -16 6 0 10 4 10 9 0 6 -4 13 -10 16 -5 3
-10 -1 -10 -9z"/>
<path d="M2845 3710 c-3 -5 1 -10 9 -10 9 0 16 5 16 10 0 6 -4 10 -9 10 -6 0
-13 -4 -16 -10z"/>
<path d="M2468 3693 c-10 -2 -18 -13 -18 -24 0 -18 1 -19 25 -3 14 9 22 20 19
25 -3 5 -6 8 -7 8 -1 -1 -10 -3 -19 -6z"/>
<path d="M2546 3691 c-3 -5 1 -11 9 -15 15 -6 29 7 18 18 -9 9 -21 8 -27 -3z"/>
<path d="M770 3623 c0 -4 5 -15 10 -23 8 -13 10 -13 10 2 0 9 -4 20 -10 23 -5
3 -10 3 -10 -2z"/>
<path d="M2330 3547 c-6 -28 -14 -61 -16 -72 -2 -11 7 4 21 34 27 57 30 77 16
85 -5 3 -14 -18 -21 -47z"/>
<path d="M4210 3564 c0 -14 3 -14 15 -4 8 7 15 14 15 16 0 2 -7 4 -15 4 -8 0
-15 -7 -15 -16z"/>
<path d="M2242 3515 c-14 -53 -16 -98 -3 -91 9 6 26 124 19 131 -2 3 -9 -16
-16 -40z"/>
<path d="M2800 3531 c0 -5 -15 -25 -32 -44 -38 -40 -102 -127 -94 -127 3 0 -1
-18 -10 -40 -9 -21 -14 -45 -12 -52 3 -7 13 12 23 42 21 64 41 93 93 131 39
29 67 73 57 90 -8 12 -25 12 -25 0z"/>
<path d="M3936 3508 c-8 -32 -7 -48 3 -48 12 0 22 53 12 63 -5 5 -11 -2 -15
-15z"/>
<path d="M720 3486 c0 -8 5 -18 10 -21 6 -3 10 1 10 9 0 8 -4 18 -10 21 -5 3
-10 -1 -10 -9z"/>
<path d="M2531 3474 c0 -11 3 -14 6 -6 3 7 2 16 -1 19 -3 4 -6 -2 -5 -13z"/>
<path d="M2820 3441 c-5 -11 -10 -27 -10 -35 0 -14 3 -14 20 -4 11 7 20 23 20
35 0 28 -16 30 -30 4z"/>
<path d="M2291 3384 c0 -11 3 -14 6 -6 3 7 2 16 -1 19 -3 4 -6 -2 -5 -13z"/>
<path d="M2792 3360 c-18 -30 -14 -36 8 -12 21 22 25 32 12 32 -4 0 -13 -9
-20 -20z"/>
<path d="M4066 3339 c-19 -19 -19 -19 2 -19 15 0 22 6 22 20 0 24 0 24 -24 -1z"/>
<path d="M2825 3304 c-9 -14 -15 -28 -12 -30 7 -8 37 26 37 42 0 20 -5 18 -25
-12z"/>
<path d="M2757 3263 c-4 -3 -7 -11 -7 -17 0 -6 5 -5 12 2 6 6 9 14 7 17 -3 3
-9 2 -12 -2z"/>
<path d="M1492 3239 c1 -12 9 -24 16 -27 9 -3 13 3 10 19 -1 12 -9 24 -16 27
-9 3 -13 -3 -10 -19z"/>
<path d="M1481 3154 c0 -11 3 -14 6 -6 3 7 2 16 -1 19 -3 4 -6 -2 -5 -13z"/>
<path d="M2158 3164 c-5 -4 -8 -19 -8 -33 0 -18 3 -22 11 -14 6 6 9 21 7 33
-1 12 -6 18 -10 14z"/>
<path d="M2831 3122 c-19 -35 -13 -48 11 -24 16 16 19 25 11 33 -8 8 -14 6
-22 -9z"/>
<path d="M4355 3040 c-11 -19 -18 -41 -16 -48 1 -8 -3 -20 -9 -27 -7 -8 -9
-19 -5 -24 4 -7 -1 -8 -11 -4 -11 4 -15 2 -11 -4 4 -5 -5 -21 -18 -33 -19 -18
-28 -21 -37 -12 -8 8 -5 16 13 32 19 17 20 19 4 11 -27 -13 -70 -59 -62 -67 4
-4 13 -1 21 5 9 7 21 9 28 5 7 -5 21 -7 31 -6 23 4 22 -7 -5 -35 -18 -20 -19
-23 -5 -23 20 0 21 -13 6 -42 -10 -18 -8 -24 12 -39 19 -14 23 -26 23 -59 -1
-30 5 -48 20 -65 36 -40 42 -49 38 -69 -6 -27 41 -65 73 -58 22 4 25 1 25 -26
0 -17 5 -34 11 -37 7 -5 4 -14 -7 -26 -16 -18 -16 -20 6 -39 13 -11 27 -20 31
-20 5 0 6 -7 3 -15 -4 -8 -17 -15 -30 -15 -14 0 -27 -7 -31 -17 -3 -10 -15
-30 -25 -45 -19 -27 -17 -68 2 -68 5 0 20 18 32 40 13 22 26 40 29 40 3 0 16
-9 29 -20 28 -24 27 -24 47 -5 8 9 23 13 32 11 9 -3 22 -2 29 2 9 7 8 13 -8
27 -20 19 -28 55 -10 55 5 0 14 17 19 38 14 47 14 122 1 122 -5 0 -10 9 -10
19 0 26 -19 31 -59 15 -30 -13 -81 -19 -81 -11 0 2 7 19 17 37 15 32 15 36 -1
64 -11 19 -14 32 -7 34 20 7 -36 43 -104 67 -13 5 -15 9 -7 12 6 3 12 11 12
19 0 8 6 14 13 14 8 0 19 11 25 25 7 15 8 25 2 25 -6 0 -10 11 -10 24 0 14
-13 38 -31 55 -36 36 -43 79 -22 129 21 51 12 75 -12 32z m4 -332 c0 -7 -4
-22 -8 -32 -10 -26 -25 -3 -16 24 7 22 25 28 24 8z"/>
<path d="M1463 3044 c-3 -8 -1 -20 6 -27 8 -8 11 -4 11 16 0 30 -7 35 -17 11z"/>
<path d="M0 3011 c0 -16 6 -31 15 -35 9 -3 15 0 15 9 0 8 5 15 12 15 6 0 3 9
-7 20 -25 28 -35 25 -35 -9z"/>
<path d="M2786 3021 c-4 -7 -5 -15 -2 -18 9 -9 19 4 14 18 -4 11 -6 11 -12 0z"/>
<path d="M685 2879 c-4 -6 -5 -12 -2 -15 2 -3 7 2 10 11 7 17 1 20 -8 4z"/>
<path d="M4711 2880 c-1 -18 16 -46 23 -40 2 3 -2 16 -9 30 -8 15 -14 19 -14
10z"/>
<path d="M4155 2849 c-11 -17 1 -21 15 -4 8 9 8 15 2 15 -6 0 -14 -5 -17 -11z"/>
<path d="M681 2814 c0 -11 3 -14 6 -6 3 7 2 16 -1 19 -3 4 -6 -2 -5 -13z"/>
<path d="M1452 2800 c0 -14 2 -19 5 -12 2 6 2 18 0 25 -3 6 -5 1 -5 -13z"/>
<path d="M4025 2740 c-8 -13 4 -32 16 -25 12 8 12 35 0 35 -6 0 -13 -4 -16
-10z"/>
<path d="M2356 2655 c-3 -8 -1 -15 4 -15 6 0 10 7 10 15 0 8 -2 15 -4 15 -2 0
-6 -7 -10 -15z"/>
<path d="M4190 2660 c0 -5 5 -10 10 -10 6 0 10 5 10 10 0 6 -4 10 -10 10 -5 0
-10 -4 -10 -10z"/>
<path d="M4242 2629 c-22 -42 -28 -69 -14 -69 15 0 64 88 56 101 -10 17 -20 9
-42 -32z"/>
<path d="M2267 2620 c-3 -11 -1 -23 4 -26 5 -3 9 6 9 20 0 31 -6 34 -13 6z"/>
<path d="M880 2610 c0 -5 7 -10 16 -10 8 0 12 5 9 10 -3 6 -10 10 -16 10 -5 0
-9 -4 -9 -10z"/>
<path d="M1431 2555 l1 -60 10 48 c8 35 7 52 -1 60 -8 8 -11 -5 -10 -48z"/>
<path d="M925 2590 c3 -5 11 -10 16 -10 6 0 7 5 4 10 -3 6 -11 10 -16 10 -6 0
-7 -4 -4 -10z"/>
<path d="M2246 2528 c-7 -36 -3 -43 19 -34 12 4 13 11 7 23 -5 10 -7 24 -5 31
3 6 0 12 -5 12 -5 0 -12 -14 -16 -32z"/>
<path d="M1480 2478 c0 -16 5 -28 10 -28 13 0 13 20 0 40 -8 12 -10 9 -10 -12z"/>
<path d="M4020 2473 c0 -6 53 -54 56 -50 2 2 5 14 6 27 3 21 -1 24 -29 25 -18
0 -33 -1 -33 -2z"/>
<path d="M3910 2434 c0 -8 5 -12 10 -9 6 4 8 11 5 16 -9 14 -15 11 -15 -7z"/>
<path d="M4257 2419 c-3 -12 -10 -18 -16 -15 -5 4 -13 2 -16 -4 -4 -6 -15 -8
-26 -5 -10 4 -19 2 -19 -3 0 -12 34 -42 47 -42 6 0 18 -10 27 -22 12 -16 18
-19 22 -10 3 6 10 10 15 6 18 -11 9 23 -11 41 -16 14 -19 26 -15 47 8 32 0 38
-8 7z"/>
<path d="M3890 2390 c0 -5 4 -10 9 -10 6 0 13 5 16 10 3 6 -1 10 -9 10 -9 0
-16 -4 -16 -10z"/>
<path d="M1030 2364 c0 -8 5 -12 10 -9 6 4 8 11 5 16 -9 14 -15 11 -15 -7z"/>
<path d="M4670 2350 c0 -5 7 -10 15 -10 8 0 15 5 15 10 0 6 -7 10 -15 10 -8 0
-15 -4 -15 -10z"/>
<path d="M1451 2324 c0 -11 3 -14 6 -6 3 7 2 16 -1 19 -3 4 -6 -2 -5 -13z"/>
<path d="M4420 2310 c0 -5 4 -10 9 -10 6 0 13 5 16 10 3 6 -1 10 -9 10 -9 0
-16 -4 -16 -10z"/>
<path d="M4373 2292 c10 -10 17 -24 17 -31 0 -7 5 -9 10 -6 16 10 12 42 -6 49
-29 11 -37 6 -21 -12z"/>
<path d="M1175 2281 c-3 -5 -1 -12 5 -16 5 -3 10 1 10 9 0 18 -6 21 -15 7z"/>
<path d="M505 2200 c3 -5 8 -10 11 -10 2 0 4 5 4 10 0 6 -5 10 -11 10 -5 0 -7
-4 -4 -10z"/>
<path d="M834 2199 c-4 -7 2 -20 16 -31 30 -25 37 -15 12 17 -14 18 -23 22
-28 14z"/>
<path d="M315 2190 c3 -5 8 -10 11 -10 2 0 4 5 4 10 0 6 -5 10 -11 10 -5 0 -7
-4 -4 -10z"/>
<path d="M688 2168 c-15 -17 -25 -34 -23 -37 6 -6 65 49 65 61 0 16 -15 7 -42
-24z"/>
<path d="M80 2180 c0 -5 5 -10 10 -10 6 0 10 5 10 10 0 6 -4 10 -10 10 -5 0
-10 -4 -10 -10z"/>
<path d="M580 2170 c0 -5 5 -10 11 -10 5 0 7 5 4 10 -3 6 -8 10 -11 10 -2 0
-4 -4 -4 -10z"/>
<path d="M1473 2144 c-13 -27 1 -99 18 -89 11 7 12 102 1 109 -4 2 -12 -7 -19
-20z"/>
<path d="M4720 2139 c0 -5 9 -9 20 -9 11 0 20 2 20 4 0 2 -9 6 -20 9 -11 3
-20 1 -20 -4z"/>
<path d="M37 2134 c-4 -4 -4 -10 -1 -15 6 -10 34 0 34 12 0 10 -24 12 -33 3z"/>
<path d="M706 2091 c-4 -6 -13 -8 -21 -4 -10 3 -15 -1 -15 -11 0 -13 4 -15 20
-6 11 5 22 10 25 10 7 0 8 10 2 16 -3 3 -8 1 -11 -5z"/>
<path d="M32 1999 c-17 -5 -32 -16 -32 -24 0 -19 27 -19 46 0 9 8 27 15 42 16
24 0 25 1 7 9 -24 10 -22 10 -63 -1z"/>
<path d="M1460 1990 c0 -11 5 -20 10 -20 6 0 10 9 10 20 0 11 -4 20 -10 20 -5
0 -10 -9 -10 -20z"/>
<path d="M535 1890 c3 -5 20 -10 36 -10 18 0 28 4 24 10 -3 6 -20 10 -36 10
-18 0 -28 -4 -24 -10z"/>
<path d="M655 1670 c3 -5 10 -10 16 -10 5 0 9 5 9 10 0 6 -7 10 -16 10 -8 0
-12 -4 -9 -10z"/>
</g>
</svg>
